<?xml version="1.0" encoding="UTF-8" standalone="no"?>
<svg
    xmlns:dc="http://purl.org/dc/elements/1.1/"
    xmlns:cc="http://creativecommons.org/ns#"
    xmlns:rdf="http://www.w3.org/1999/02/22-rdf-syntax-ns#"
    xmlns:svg="http://www.w3.org/2000/svg"
    xmlns="http://www.w3.org/2000/svg"
    xmlns:xlink="http://www.w3.org/1999/xlink"
    height="660"
    width="660"
    viewBox="-30 -45 660 660"
    id="brain_outer"
    version="1.1">

    <defs id="defs3530"/>
    <pattern id="hatch00" patternUnits="userSpaceOnUse" x="0" y="0" width="10" height="10">
        <g style=" stroke:#555555; stroke-width:1" fill="none" id="g5">
            <path d="M0,0 l10,10" id="path7"/>
            <path d="M10,0 l-10,10" id="path9"/>
        </g>
    </pattern>

    <linearGradient id="gradient"></linearGradient>

    <rect fill="#ffffff" style="stroke:#000000;stroke-width:0" id="svgBackground" y="-45" x="-30" height="660" width="660"/>

    <path
        id="brainBackground"
        class="brainBackground"
        fill="#ffffff"
        fill-opacity="1"
        style="stroke:#000000;stroke-width:0;stroke-linecap:butt;stroke-linejoin:miter;stroke-miterlimit:4;stroke-opacity:1;stroke-dasharray:none"
        d="m 3.2044584,219.42186 c 0.3209783,-8.85404 -1.087904,-5.10755 0.3133089,-12.55484 4.5160555,-24.00238 13.2444927,-36.246 24.9957247,-60.17912 4.177168,-10.54263 18.698613,-16.78622 18.848608,-15.46176 5.507898,-19.87698 5.672358,-22.66218 23.272097,-35.805542 6.296207,-3.148104 16.751888,-24.528564 23.122282,-27.71376 9.878401,-6.267984 7.474481,-4.590972 16.176061,-7.31544 3.49196,-8.043048 7.4217,-18.108276 17.04016,-22.606236 9.79269,-4.896348 18.01156,-4.540692 28.14048,-9.605148 9.17937,-4.589688 26.56086,-20.8519695 36.27774,-23.2811895 37.24102,5.9665335 22.75777,1.7642268 56.13116,-4.00428726 3.20231,-0.6404604 17.40958,2.57767326 20.51178,1.54360566 15.33444,-5.1608533 13.86929,-1.82805966 37.58199,-6.3114997 4.53338,-0.8571444 6.29493,-9.8300742 17.09788,-12.0210582 0.52533,-0.539715 24.1378,-1.462708 28.63539,2.006687 8.58879,2.862933 7.94904,1.702995 16.01714,5.7370468 7.00631,3.503154 20.82203,9.7756765 27.28093,14.0816065 -4.9274,-0.7247052 47.99553,20.2552407 61.04345,25.4149647 19.43427,10.15086 50.83756,29.613936 61.04955,45.719424 5.60828,2.78694 26.08983,15.23046 34.5752,28.092066 8.28073,9.28987 8.85869,11.58344 13.59126,21.51662 3.56554,5.3483 10.08635,21.10946 13.21296,25.79938 9.20261,16.60436 14.59668,36.69876 19.72181,53.728 5.91452,9.87648 0.63108,66.44402 -4.935,71.74729 -2.16544,8.74361 -24.04216,27.96311 -38.43422,28.77157 -7.69872,1.32024 -26.68638,0.61187 -33.21168,5.70225 10.17036,5.68173 55.48134,-1.96178 18.3371,20.9567 -20.75909,6.14594 -12.09976,2.22778 -23.19485,3.34295 -2.39559,-1.88031 -47.73953,-5.54477 -49.28036,-5.96255 -0.71361,0 -1.27038,11.6699 -1.74639,13.09794 -1.24506,6.79043 -5.95761,14.79338 -13.61399,23.16616 -16.44096,11.34176 -18.62994,11.1897 -24.97006,14.39487 -11.25702,5.16582 -15.53157,5.82292 -26.03241,13.9575 -6.10596,3.68262 -8.43768,4.35432 -17.81197,4.93953 -16.83839,-3.04328 -27.52582,-3.97694 -33.88763,-10.97858 -17.44507,-9.07548 -17.68043,-11.29726 -26.98483,-11.6322 -5.36748,22.05803 -21.26058,35.99826 -42.89251,47.41286 -7.30396,14.60791 -12.25792,29.87163 -25.11988,42.7336 -9.69651,17.69836 -11.85021,20.80472 -25.70552,35.52709 -8.30369,9.23252 -29.54382,47.62713 -38.71724,54.10785 -1.60014,2.43016 -9.71899,2.57819 -13.63514,1.43767 -5.66999,-1.41748 -13.79585,-4.95819 -15.77958,-8.92564 -8.02874,-10.81878 14.8263,-56.19839 14.48263,-56.15389 -21.68462,-12.47721 -36.98729,-34.70197 -60.46236,-44.63436 -6.45612,-3.22807 -11.36036,-7.58326 -18.231154,-9.30097 -6.960056,-8.78036 -7.357341,-10.3703 -12.158134,-15.9203 -3.919715,-2.61313 -7.628895,-12.98695 -10.478345,-17.26113 -4.504623,-6.75693 -8.955743,-13.75284 -12.480488,-20.80233 -3.076867,-6.15373 -10.204999,-53.75409 -6.372664,-61.41876 2.435644,-3.01123 0.143593,-19.82713 -4.789723,-20.81596 0,-0.14873 -12.195745,0.15178 -19.770229,-1.74185 C 9.1050987,296.73173 0.45617782,238.09608 3.2044584,219.42186 Z"/>
    <path
        id="M1C"
        class="M1C"
        fill="#ffffff"
        fill-opacity="1"
        style="fill-rule:evenodd;stroke:#000000;stroke-width:0;stroke-linecap:butt;stroke-linejoin:miter;stroke-miterlimit:4;stroke-opacity:1;stroke-dasharray:none"
        d="m 360.35079,30.43161 c -3.55635,5.045699 3.31676,42.409162 11.35561,56.537028 9.77108,17.172162 22.2188,23.625512 25.15092,35.084022 4.28904,16.76122 -10.08377,35.28805 -21.41951,49.25988 -5.32467,4.52492 -7.13898,11.23263 -7.59328,17.823 -0.67934,9.8549 -1.03815,12.13273 -5.14798,10.58003 -3.50428,-4.02847 -5.06164,-13.65409 -8.14253,-25.67944 -3.59428,-14.02924 -11.96712,-29.33791 -16.43949,-44.1192 C 330.40722,104.4441 335.89965,66.550411 328.05966,52.72383 317.11936,25.579338 310.1647,5.6089137 306.48775,-3.4604656 312.955,-21.750378 356.68173,-16.875814 354.88643,-9.185038 c -6.80017,8.25252347 -9.2262,13.0892808 -8.92064,17.4635387 0.57151,8.1815793 6.12919,15.7685523 14.385,22.1531093 z"/>
    <path
        id="OFC"
        class="OFC"
        fill="#ffffff"
        fill-opacity="1"
        style="fill-rule:evenodd;stroke:#000000;stroke-width:0;stroke-linecap:butt;stroke-linejoin:miter;stroke-miterlimit:4;stroke-opacity:1;stroke-dasharray:none"
        d="m 447.8061,275.03412 c 10.22257,16.4282 15.04182,29.26103 19.50345,47.10265 18.9457,0.63119 47.77967,-7.78747 61.63824,-13.61562 16.14733,-2.92555 28.21617,-0.35973 42.50279,-9.19973 7.07578,-10.72188 6.54937,-11.44504 9.01573,-32.19908 l -15.82354,-11.59165 c -3.90157,7.19945 -6.90939,15.29263 -14.5356,18.76746 -26.11501,7.25117 -60.78588,-0.98707 -102.30107,0.73597 z"/>
    <path
        id="VFC"
        class="VFC"
        fill="#ffffff"
        fill-opacity="1"
        style="fill-rule:evenodd;stroke:#000000;stroke-width:0;stroke-linecap:butt;stroke-linejoin:miter;stroke-miterlimit:4;stroke-opacity:1;stroke-dasharray:none"
        d="m 447.43812,275.21811 c -0.15693,-0.26305 6.83595,0.01 17.15324,0.43475 14.61321,0.60154 35.88455,2.17292 52.9664,2.29002 14.4553,0.0991 25.91356,-1.03227 27.76556,-2.72477 12.33546,-0.60501 14.21838,-12.31586 19.31945,-20.60741 10.4463,9.53522 13.75303,10.33612 16.00753,11.77566 4.45138,-5.29338 9.01296,-14.75863 12.87964,-25.39128 -3.49138,-11.46886 -11.04047,-18.44308 -17.02872,-20.20261 -8.50327,-2.21272 -8.726,-1.17017 -11.46943,-0.7833 -2.14333,-17.43723 -4.54233,-49.23245 -37.37196,-44.88421 -13.51261,29.46802 -21.17882,69.52289 -51.97852,54.75683 -25.47474,-2.16873 -43.73334,7.46014 -49.58658,24.9129 8.56813,9.53044 17.74924,19.46616 21.34339,20.42342 z"/>
    <path
        id="DFC"
        class="DFC"
        fill="#ffffff"
        fill-opacity="1"
        style="fill-rule:evenodd;stroke:#000000;stroke-width:0;stroke-linecap:butt;stroke-linejoin:miter;stroke-miterlimit:4;stroke-opacity:1;stroke-dasharray:none"
        d="m 429.82629,148.2407 c 0.69109,-15.79749 16.43857,-59.058722 2.60208,-97.317722 4.31617,-6.40926 14.39078,-6.029976 17.17371,-2.60208 16.65958,14.977932 20.37261,23.99352 37.59623,36.838752 21.40378,15.96274 45.55915,32.14756 57.37965,52.15233 6.72433,21.25109 -2.12506,13.69526 11.70493,27.55711 9.19615,9.21732 22.15237,17.75553 21.86187,19.80071 12.67484,19.99477 13.72265,38.85845 15.74258,56.85543 -8.95492,-21.304 -17.29518,-21.37119 -28.80588,-22.55007 -3.385,-9.44916 -3.61563,-47.70365 -37.15682,-44.45346 -3.86596,9.38587 -7.28761,18.3281 -11.27057,27.66217 -3.99872,9.37101 -8.14015,19.16664 -16.16605,26.19968 -12.13335,-21.81661 -28.33197,-19.15982 -37.61533,-31.22377 -7.81802,0.90405 -9.12661,-34.49906 -18.21455,-47.09762 -3.58459,-0.83371 -3.59861,-2.26252 -14.83185,-1.82146 z"/>
    <path
        id="FL"
        class="FL"
        fill="#ffffff"
        fill-opacity="1"
        style="fill-rule:evenodd;stroke:#000000;stroke-width:0px;stroke-linecap:butt;stroke-linejoin:miter;stroke-opacity:1"
        d="m 361.83414,203.03142 c -3.9512,-26.7891 -22.15475,-62.23452 -26.68345,-88.48274 -2.96131,-17.16361 -2.10906,-33.228322 -3.69683,-50.114662 -2.34945,-24.986976 -21.91596,-48.481236 -23.62356,-71.9608972 13.66151,-9.3758478 35.18382,-13.2858208 70.56861,5.0687796 45.66144,23.6852656 92.56845,41.1365776 118.30171,58.9133056 17.56457,19.354476 42.78041,37.13022 62.29546,58.048954 12.58626,30.4377 29.40552,57.91232 37.55137,91.45832 9.50385,59.52345 -4.09773,61.86144 -11.88051,83.57967 -19.78538,16.36806 -34.0356,36.33105 -47.88098,44.18628 -24.35251,1.69612 -49.4166,-0.33216 -69.40449,-3.97059 -2.39661,-15.84931 -7.8685,-31.69862 -14.11803,-47.54793 -17.37905,-17.01068 -39.46339,-33.31433 -55.6579,-48.61385 -19.90014,-18.80037 -26.24528,-36.95058 -35.7714,-30.56464 z"/>
    <path
        id="V1C"
        class="V1C"
        fill="#ffffff"
        fill-opacity="1"
        style="fill-rule:evenodd;stroke:#000000;stroke-width:0;stroke-linecap:butt;stroke-linejoin:miter;stroke-miterlimit:4;stroke-opacity:1;stroke-dasharray:none"
        d="m 3.9664152,222.84673 c 21.7170028,-12.53832 22.2169798,-9.72158 37.5793078,-7.05893 12.837442,6.87302 19.944898,20.26196 26.865647,36.4874 4.140726,9.70778 13.240066,13.92237 19.317034,17.79105 -4.318224,13.08032 -7.235572,25.22669 -5.703838,34.40703 L 34.185935,303.73729 C 30.919044,303.44783 22.565126,301.21477 17.041903,290.31382 8.42725,273.31144 -0.93445409,248.96111 3.9664152,222.84673 Z"/>
    <path
        id="OL"
        class="OL"
        fill="#ffffff"
        fill-opacity="1"
        style="fill-rule:evenodd;stroke:#000000;stroke-width:0px;stroke-linecap:butt;stroke-linejoin:miter;stroke-opacity:1"
        d="m 130.53098,304.62734 -14.72353,3.69325 C 86.945372,301.68188 66.13783,302.67924 36.558051,304.1366 28.104275,302.46779 22.608881,298.98548 18.067599,292.56768 9.4391104,278.99396 1.5181677,252.77834 3.2869696,231.81948 3.1100884,224.9713 6.4653782,219.08644 8.6629463,212.88584 c -5.6648434,1.8349 -3.2362305,-5.13662 -3.9027062,-8.4043 2.5313685,-12.06981 8.4687409,-23.30702 13.4475499,-34.9101 4.327245,-10.08461 9.213115,-23.78786 16.325185,-30.52701 2.914554,-2.57096 5.72109,-5.28207 11.694894,-6.6764 -4.052505,20.33139 -8.41485,21.18912 11.018926,22.67444 15.354975,0.6162 27.15804,-0.97321 35.46579,-4.03333 l 18.359075,24.34523 c 6.77016,18.97031 10.32794,36.51288 12.75018,53.55078 -2.7706,2.11662 -3.9962,4.49546 -4.54336,6.7291 -0.34641,22.13545 7.79068,45.79608 11.2525,68.99309 z"/>
    <path
        id="IPC"
        class="IPC"
        fill="#ffffff"
        fill-opacity="1"
        style="fill-rule:evenodd;stroke:#2f6c35;stroke-width:0;stroke-linecap:butt;stroke-linejoin:miter;stroke-miterlimit:4;stroke-opacity:0.99607843;stroke-dasharray:none"
        d="m 296.07294,170.8788 c 5.18832,-28.67779 -1.95827,-11.54258 8.72553,-39.63729 -2.60778,-11.88201 -11.25139,-22.88295 -18.54338,-35.17227 -7.79711,-13.140629 -15.55153,-28.310446 -28.16599,-38.641062 -13.27059,-3.027456 -26.5412,8.336736 -39.8118,15.612468 -26.29865,3.54312 -57.71606,-2.23758 -76.24091,21.597252 -32.16372,5.538782 -84.252436,46.487982 -84.464282,60.363252 11.700425,0.54135 23.214054,0.02 35.273678,-3.91565 14.433134,-4.71026 30.367754,-11.46426 45.287494,-14.81435 19.30233,9.11785 36.92426,15.56605 74.0457,29.3512 15.96311,7.31078 15.83278,-4.46807 30.29764,-3.33043 30.32787,2.98294 4.26402,-1.07814 53.59632,8.58688 z"/>
    <path
        id="S1C"
        class="S1C"
        fill="#ffffff"
        fill-opacity="1"
        style="fill-rule:evenodd;stroke:#000000;stroke-width:0;stroke-linecap:butt;stroke-linejoin:miter;stroke-miterlimit:4;stroke-opacity:1;stroke-dasharray:none"
        d="m 305.2908,-1.97728 c 0.72588,-0.3034489 -16.19623,1.92815241 -35.43241,2.21744224 -25.807,0.38810754 -43.43289,3.02931336 -52.38291,10.14890476 19.66817,33.693041 26.81686,37.306953 46.57508,51.17911 15.23137,23.172343 27.2157,38.439233 42.10824,70.726563 -6.84187,16.99902 -5.81575,11.45101 -10.09385,38.56234 17.74693,4.33936 34.79251,5.749 43.76432,13.63039 10.17343,8.93697 14.89115,20.04205 19.47172,17.96766 2.65668,-1.20312 1.76819,-3.84234 -1.26347,-14.30657 -0.83704,-2.88918 -1.11381,-6.68117 -2.24037,-10.89468 -2.47278,-11.56406 -7.78589,-18.77915 -11.58978,-28.42003 -3.66214,-9.28164 -5.3219,-20.95043 -10.34492,-39.3672 -0.47868,-10.688398 2.14317,-31.326317 -3.47976,-50.646436 -6.52388,-22.41576 -4.41858,-11.9925 -25.09189,-60.797494 z"/>
    <path
        id="PL"
        class="PL"
        fill="#ffffff"
        fill-opacity="1"
        style="fill-rule:evenodd;stroke:#000000;stroke-width:0px;stroke-linecap:butt;stroke-linejoin:miter;stroke-opacity:1"
        d="M 46.088303,132.4168 56.762088,107.17571 C 74.05167,95.921106 82.161723,78.286914 98.492096,65.445714 l 12.879624,-6.18222 7.59899,-17.129916 c 10.31519,-5.682996 22.55833,-8.281296 34.51741,-11.334072 L 189.0359,5.5554249 c 7.88097,-0.6976608 16.88746,2.7316488 25.75926,5.6670411 L 246.22147,0.40357284 c 20.09223,-0.52923721 40.18445,0.1231668 60.27668,-3.60629644 l 24.72889,64.9133416 c 2.10757,22.496424 1.09108,44.108962 5.63674,66.605382 -0.19587,2.223 5.42028,15.88931 17.13048,43.66417 5.05304,16.86311 0.33642,7.61133 6.92352,25.76661 1.19074,5.65556 -2.99501,5.8056 -5.5627,3.84632 -5.87894,-5.31769 -8.60019,-13.16406 -15.48962,-17.07738 -33.36696,-13.67907 -68.00518,-18.01657 -97.63667,-22.21519 -6.22414,2.06239 -13.35848,2.66844 -18.03149,7.2126 -22.62468,-6.56729 -53.71332,-20.11601 -73.86342,-27.43864 l -11.65734,-6.04841 -45.711298,14.93949 c -12.587473,4.85198 -31.296908,4.28006 -35.404903,4.08511 C 36.55228,154.13642 43.012779,151.0126 46.088303,132.4168 Z"/>
    <path
        id="A1C"
        class="A1C"
        fill="#ffffff"
        fill-opacity="1"
        style="fill-rule:evenodd;stroke:#000000;stroke-width:0;stroke-linecap:butt;stroke-linejoin:miter;stroke-miterlimit:4;stroke-opacity:1;stroke-dasharray:none"
        d="m 222.1748,169.29946 c 7.74522,-1.19698 1.66924,29.4019 131.66438,48.38946 3.11208,-15.58586 -2.87001,-19.46941 -10.34065,-29.29328 -14.84405,-13.45933 -84.60575,-23.85178 -102.62185,-24.62081 -9.03152,0.0904 -12.044,2.7068 -18.70188,5.52463 z"/>
    <path
        id="ANG"
        class="ANG"
        fill="#ffffff"
        fill-opacity="1"
        style="fill-rule:evenodd;stroke:#000000;stroke-width:0px;stroke-linecap:butt;stroke-linejoin:miter;stroke-opacity:1"
        d="m 92.827702,151.05418 c 7.625728,10.01303 15.844858,19.52127 22.287408,31.89697 3.72548,14.24658 6.76102,28.76915 11.17645,42.73975 9.8321,1.10547 19.8474,2.68367 29.81765,2.40768 0,0 11.07807,-0.10296 22.93135,-2.99317 5.59059,-1.36316 23.15543,-11.02463 23.15543,-11.02463 -4.82351,-5.54216 -10.41368,-6.54126 -10.97582,-8.35474 l -5.52768,-5.65371 C 175.99211,189.01145 166.7675,177.50605 159.44567,165.37315 L 148.769,141.35064 138.31476,136.17912 c -3.3468,0.0806 -29.00239,8.8395 -45.487058,14.87506 z"/>
    <path
        id="ITC"
        class="ITC"
        fill="#ffffff"
        fill-opacity="1"
        style="fill-rule:evenodd;stroke:#000000;stroke-width:0;stroke-linecap:butt;stroke-linejoin:miter;stroke-miterlimit:4;stroke-opacity:1;stroke-dasharray:none"
        d="m 291.41057,310.72909 c -6.75197,4.48637 -13.69085,9.28426 -21.89537,16.19155 23.00044,12.4363 37.10176,31.86477 53.72646,49.31058 14.59288,5.6142 25.38272,16.79422 43.23877,22.44737 13.78002,1.81876 31.97737,3.70017 44.52672,-12.51164 19.90972,-4.71133 32.81269,-12.48693 41.16468,-21.03685 17.65541,-16.65131 16.94895,-38.41319 11.64182,-49.06515 -3.58336,3.77498 -7.28005,5.48332 -11.49365,11.17735 -14.31464,23.19794 -41.2592,35.19455 -65.82213,30.18548 -12.95725,-2.64234 -25.51721,-4.06912 -36.81561,-10.09893 -22.28001,-10.24731 -37.78681,-20.90444 -58.27169,-36.59976 z"/>
    <path
        id="STC"
        class="STC"
        fill="#ffffff"
        fill-opacity="1"
        style="fill-rule:evenodd;stroke:#000000;stroke-width:0;stroke-linecap:butt;stroke-linejoin:miter;stroke-miterlimit:4;stroke-opacity:1;stroke-dasharray:none"
        d="m 149.14007,141.33221 c 14.82205,48.11035 55.07927,77.08989 79.86944,80.65976 22.92726,14.1679 26.00258,21.70315 48.33497,18.10212 16.19614,5.73994 36.47785,1.26588 55.16406,0.78063 11.07112,-2.77106 15.51815,-13.82219 21.33706,-23.1585 -70.45122,-13.47862 -95.79382,-16.14983 -131.66518,-48.39867 -30.28991,-11.41956 -31.5949,-11.24472 -73.04035,-27.98534 z"/>
    <path
        id="TL"
        class="TL"
        fill="#ffffff"
        fill-opacity="1"
        style="fill-rule:evenodd;stroke:#000000;stroke-width:0px;stroke-linecap:butt;stroke-linejoin:miter;stroke-opacity:1"
        d="m 467.55921,329.94536 c 1.24909,35.27709 -39.70353,54.01176 -55.44684,55.79827 -4.55171,1.71025 -5.6912,7.76162 -11.6989,10.58133 -8.82451,4.14179 -23.6597,4.43892 -28.74439,3.60478 -21.61856,-5.53142 -25.00681,-10.92733 -31.15622,-14.72587 -5.22513,-3.2276 -11.59454,-4.62136 -18.17311,-10.74227 -12.3034,-11.44747 -26.51234,-28.76932 -52.45004,-46.61994 -36.11431,1.08229 -39.3472,4.4802 -79.03339,-13.38648 -21.52532,-19.02101 -60.33814,-9.81641 -60.33814,-9.81641 -3.35819,-23.50882 -11.24363,-43.96258 -11.10568,-69.14772 0.01,-1.05849 2.40566,-5.46251 4.41443,-6.7524 0.5427,-0.17056 -4.19308,-26.28317 -7.60416,-39.55848 -3.66629,-14.26854 -22.83708,-38.21917 -23.349725,-38.12911 15.425615,-5.26469 30.720335,-10.92184 46.447485,-15.28257 6.03287,2.49471 8.4565,5.01977 11.75808,6.35086 34.59522,13.94762 67.09874,25.52438 71.19308,27.23594 l 13.77659,-5.58854 c 28.46341,1.11699 56.92683,7.56043 85.39024,13.34535 7.82904,2.415 13.98137,4.73063 19.71602,9.05732 5.28966,3.99094 10.36379,9.89805 12.864,14.46939 2.62419,4.79802 12.99863,0.88802 16.88959,5.73473 22.70534,28.28255 48.93344,44.12438 75.20522,68.62377 12.05535,14.28126 17.32156,30.50414 21.44586,54.94805 z"/>
    <path
        id="CB"
        class="CB"
        fill="#ffffff"
        fill-opacity="1"
        style=";fill-rule:evenodd;stroke:#000000;stroke-width:0;stroke-linecap:butt;stroke-linejoin:miter;stroke-miterlimit:4;stroke-opacity:1;stroke-dasharray:none"
        d="m 53.825939,304.36542 c 17.017201,0.54208 15.841584,-4.33499 62.189671,4.94395 47.9398,-19.92187 64.29709,2.23706 104.60356,16.91351 17.28634,4.09338 32.95146,1.70193 48.91908,0.52042 15.035,7.20691 23.09321,18.40055 18.73497,36.6893 l -28.36266,48.39867 c 0.91434,15.79518 -6.22573,18.91269 -10.92873,27.84224 -8.37703,32.27946 -30.50319,36.23669 -56.2049,54.38344 -8.37971,0.31327 -15.72864,-0.40425 -21.33705,-2.86229 -8.08925,-4.91339 -16.00235,-10.6302 -22.51048,-16.75635 C 137.47726,463.65834 129.03196,453.14988 114.81782,447.32279 99.116081,447.82551 86.2533,430.22775 74.6754,407.90146 70.004029,398.89341 63.001605,391.58587 59.550511,380.0859 55.799537,365.6425 53.790108,351.07872 53.115289,336.39868 52.62722,325.78123 52.752985,315.10296 53.825939,304.36542 Z"/>
    <path
        id="MED"
        class="MED"
        fill="#ffffff"
        fill-opacity="1"
        style="fill-rule:evenodd;stroke:#000000;stroke-width:0px;stroke-linecap:butt;stroke-linejoin:miter;stroke-opacity:1"
        d="m 158.63998,546.88635 c 7.55029,5.57039 5.14039,9.65551 25.51041,12.28032 1.46804,0.18917 6.49395,-1.36142 10.22034,-6.81356 9.11372,-13.33447 25.60189,-39.4484 45.72367,-64.44602 36.41613,-45.24038 25.90411,-39.61716 33.94937,-52.38893 0.27834,-2.47058 -0.0861,-7.8982 -1.94763,-6.81181 -1.6417,0.95812 -3.08183,2.19019 -3.95838,1.62855 -3.81839,-2.44658 -4.3479,-6.69089 -7.2777,-12.87724 -8.19233,15.88101 -14.97709,31.76201 -24.9423,47.64302 -13.06652,13.33164 -28.95179,22.1085 -44.82112,30.91113 -5.15122,-2.32156 -10.8738,-1.78619 -16.48592,-1.80316 -6.94655,20.01685 -19.93074,49.17644 -15.97074,52.6777 z"/>
    <path
        id="PON"
        class="PON"
        fill="#ffffff"
        fill-opacity="1"
        style="fill-rule:evenodd;stroke:#000000;stroke-width:0px;stroke-linecap:butt;stroke-linejoin:miter;stroke-opacity:1"
        d="m 307.15129,360.4142 c 5.2777,4.47235 12.22153,12.56976 14.66272,17.94134 -3.20887,8.75935 -7.2012,17.15306 -14.02522,24.22534 -9.75415,9.63233 -19.70552,16.07842 -29.68971,22.95034 l -8.74299,3.46076 c -3.4965,5.10774 -9.13399,-12.02017 -8.92512,-14.20734 l 12.93233,-27.13968 c 9.69549,-12.22227 18.22397,-41.74855 33.78799,-27.23076 z"/>
    <path
        id="BS"
        class="BS"
        fill="#ffffff"
        fill-opacity="1"
        style="fill-rule:evenodd;stroke:#000000;stroke-width:0px;stroke-linecap:butt;stroke-linejoin:miter;stroke-opacity:1"
        d="m 157.6096,547.01514 c 0.28017,6.61984 28.09477,14.89465 31.97541,10.74076 8.09286,-8.66268 21.92158,-30.81725 65.80175,-90.83757 14.63904,-20.02362 18.93797,-38.05591 21.52175,-39.14341 16.65166,-7.00855 52.02563,-45.5138 46.07556,-52.05888 l -29.88074,-29.10797 -6.69741,22.66816 -27.82001,45.85148 2.06074,3.6063 -12.36444,22.66815 -5.15185,15.97075 c -12.36446,11.14247 -24.7289,23.90027 -37.09335,29.88074 l -17.00111,7.21259 -14.94037,-1.03037 c -6.11288,17.98328 -14.76527,36.47444 -16.48593,53.57927 z"/>
    <path
        id="brainOutline"
        class="brainOutline"
        fill="#000000"
        d="m 190.59055,557.85466 c 3.51732,-1.91648 9.67947,-9.71134 13.74015,-17.28961 4.02567,-7.51294 14.52093,-22.65396 23.3768,-33.93011 22.99723,-29.28231 45.53995,-62.55379 48.16253,-72.05381 1.58381,-5.73917 4.37094,-9.09817 9.23554,-11.1177 8.50531,-3.52386 28.84813,-24.65676 34.55606,-35.8878 2.28319,-4.50272 4.36067,-8.44904 4.61777,-8.74786 0.74049,-0.91702 16.03359,7.40837 26.48271,14.4149 17.33974,11.61226 47.60717,10.74676 57.33635,-1.6486 2.70485,-3.44143 9.18411,-6.68711 17.20605,-8.6139 10.36682,-2.49349 15.51938,-5.67734 26.5547,-16.44472 11.19989,-10.90131 14.00756,-15.23917 15.35483,-23.71912 l 1.65584,-10.38614 13.31847,1.32918 c 7.32258,0.72126 20.38396,2.05044 29.02299,2.93656 9.94517,1.03037 18.77958,0.59761 24.12755,-1.16432 8.70072,-2.88503 18.02328,-13.57308 20.77479,-16.55806 46.54653,-50.49589 17.84413,-20.82606 -0.0764,-3.03262 -1.05767,1.05018 -11.47385,-0.34652 -15.37091,-0.9343 -8.44775,-1.27415 -15.44739,-2.44198 -15.44739,-3.41052 0,-0.96856 8.05278,-2.36986 17.90538,-3.12203 38.21327,-2.89534 58.21672,-28.04669 58.09638,-73.05327 -0.067,-25.46046 -5.76139,-46.56245 -20.89512,-77.46326 -7.69694,-15.71315 -15.8711,-33.00276 -18.16353,-38.43282 C 557.42704,108.3246 544.811,95.424366 524.02594,80.556126 516.18909,74.940606 507.26212,67.264338 504.18705,63.482886 497.57406,55.34295 473.71392,39.021882 458.6779,32.35539 452.79516,29.748546 435.68165,22.556562 420.65592,16.374342 405.61991,10.202418 388.03333,1.7636877 381.56436,-2.3784016 c -6.45869,-4.131786 -13.94585,-7.5526164 -16.63011,-7.5938316 -2.68426,-0.04122 -6.96264,-1.6485928 -9.49265,-3.5650818 -5.60506,-4.245127 -31.66612,-4.739704 -40.38741,-0.75217 -3.30133,1.50434 -6.59238,4.5851482 -7.30203,6.8313562 -1.00789,3.1941492 -5.3274,4.4512008 -19.65376,5.7597708 -10.08915,0.91703043 -24.7652,1.54555683 -32.6123,1.39100043 C 246.74422,-0.46191277 235.90432,1.2691101 227.47097,4.1953617 217.207,7.7501409 212.17786,8.3786697 207.70408,6.6785553 195.20834,1.9182429 186.24022,3.8965545 174.6187,13.983882 160.91969,25.853754 147.3132,32.96331 138.29365,32.96331 c -9.80118,0 -22.58485,9.345456 -25.28968,18.505452 -1.25472,4.224516 -3.22937,7.686564 -4.39152,7.686564 -7.14776,0 -19.633197,9.252732 -25.608523,18.979428 -3.723006,6.06888 -11.097007,14.517924 -16.383272,18.773352 -9.420647,7.583514 -19.077826,22.771184 -19.077826,30.004384 0,2.01952 -1.542691,3.66811 -3.424769,3.66811 -7.466586,0 -16.023323,12.02442 -28.786456,40.47296 -10.8296291,24.13128 -13.1333625,31.45722 -12.1871804,38.70072 0.6479187,4.91486 0.082244,12.5087 -1.2547183,16.87747 -3.1882106,10.40674 5.625649,51.32275 13.7915727,63.99631 7.322599,11.37529 17.596865,16.80534 28.056249,14.83734 6.952363,-1.30857 8.911469,-0.92443 9.245834,4.06996 0.190979,2.85275 -0.652575,10.17494 -0.503975,16.83626 0.26361,11.81701 2.036362,45.27448 6.623263,57.06192 1.367827,3.53417 5.440521,11.03526 9.050404,16.67139 7.79568,12.18928 13.832704,22.64755 17.082637,29.59225 2.663683,5.68764 11.652388,12.63234 24.09668,18.61879 19.62292,9.43819 29.3521,15.75437 31.82041,20.64863 2.25228,4.4615 17.85398,16.76412 29.6092,23.35849 2.88995,1.61768 2.2009,4.63667 -4.14468,18.22726 -4.18582,8.96423 -8.24821,20.97835 -9.02982,26.70721 -1.28558,9.32485 -0.7405,11.00435 5.23483,16.1459 3.6613,3.15293 8.54644,5.73916 10.8502,5.73916 2.30372,0 5.61536,0.49458 7.35345,1.1025 1.7381,0.59761 6.0473,-0.47396 9.56463,-2.39046 z m 4.76176,-23.12152 c 5.33768,-12.10684 11.80664,-25.02769 14.38806,-28.70612 2.57114,-3.67842 4.08299,-7.28472 3.35277,-8.01628 -2.13918,-2.14317 -13.98697,18.25817 -22.8214,39.27772 -4.49435,10.70556 -9.57491,19.47401 -11.28215,19.47401 -1.71753,0 -3.11623,-0.29881 -3.11623,-0.66975 0,-1.43221 16.52728,-39.83412 20.21943,-46.97458 2.13919,-4.1627 3.35275,-8.10902 2.69455,-8.76845 -1.42956,-1.42192 -12.68084,20.82378 -20.41482,40.33899 -2.98254,7.53202 -6.90094,13.69364 -8.71101,13.69364 -4.58693,0 -4.10355,-4.08028 1.39867,-11.82866 2.58145,-3.6269 5.8622,-9.68548 7.28147,-13.45664 10.63423,-28.19094 14.44981,-33.81676 27.19235,-40.06081 21.5667,-10.5716 40.19203,-29.7365 42.29006,-43.51254 0.35998,-2.39046 3.6613,-8.28418 7.32261,-13.09601 3.85669,-5.06943 6.36614,-11.05588 5.97531,-14.22942 -0.70963,-5.65674 8.49372,-20.18451 21.13475,-40.45235 7.29017,-11.68861 14.28398,-29.77848 26.35932,-14.69309 0.89335,1.11604 4.0624,4.86335 7.06546,8.3151 5.17314,5.93493 5.27599,6.70771 1.9232,14.7343 -5.55364,13.31238 -21.57696,29.02554 -35.98561,35.26958 -7.13751,3.10141 -12.22749,6.84673 -13.02025,7.55261 -3.37569,3.00571 1.10629,1.50826 2.33461,0.45337 1.09257,-0.93833 2.292,0.56674 2.37572,3.17353 0.18785,5.8495 -24.14813,42.85312 -43.58591,66.77833 -8.14536,10.0255 -18.95444,25.17195 -24.01442,33.6622 -18.62532,31.24084 -23.73675,32.10635 -10.35654,1.74132 z m -23.6956,-11.46801 c 6.35585,-13.333 10.99417,-24.80103 10.29481,-25.50168 -0.69934,-0.69035 -6.09872,8.80967 -12.00206,21.1329 -11.79638,24.61555 -12.24888,20.45286 -0.7302,-6.77983 6.12958,-14.49732 8.19679,-17.25872 12.91741,-17.25872 3.09562,0 5.62563,1.12311 5.62563,2.49351 0,5.11063 -23.6956,52.59011 -25.63937,51.38457 -1.12102,-0.69034 3.17791,-12.14806 9.53378,-25.47075 z m 4.21665,-33.16763 c -3.27047,-1.05099 -4.28866,-2.01953 -2.28317,-2.14318 2.01577,-0.13394 7.74428,-2.32863 12.7323,-4.87365 8.98868,-4.59545 9.02982,-4.59545 4.88513,0 -5.54334,6.1307 -0.98729,5.93493 6.92151,-0.2988 6.06789,-4.78092 9.09437,-6.36405 9.09437,-1.92315 0,7.21259 -19.1115,13.16448 -31.35014,9.23878 z m -10.09943,-6.33678 c 1.63525,-0.66975 38.11848,-13.43502 39.75374,-12.76528 1.63522,0.65944 -33.51102,13.9605 -36.78149,13.9605 -3.27049,0 -4.60746,-0.53579 -2.97225,-1.19522 z m 47.24723,-21.4008 c 4.00068,-8.86119 4.16524,-8.96423 5.01885,-2.86443 0.4834,3.46204 -0.98731,10.42734 -3.26018,15.47616 -4.011,8.8715 -4.17555,8.96423 -5.01888,2.86444 -0.48336,-3.46205 0.97703,-10.42735 3.26021,-15.47617 z m -62.2421,12.33354 c -2.52999,-1.9165 -3.33217,-3.52387 -1.77922,-3.57539 1.55296,-0.0413 3.48646,0.99946 4.29895,2.30803 2.14946,3.49295 17.97356,2.42692 29.40351,-1.08189 20.89775,-6.41525 44.76473,-10.93529 3.2705,2.10195 -9.96342,3.13044 -30.39986,5.07886 -35.19374,0.2473 z m 78.37856,-12.57053 c 1.84092,-4.91486 3.96981,-11.77714 4.73088,-15.25979 1.06959,-4.90455 2.44773,-6.04827 6.13987,-5.07972 5.7902,1.51464 6.01648,4.90456 0.83306,12.66325 -4.26808,6.3677 -20.40158,22.38246 -21.62545,22.38246 -0.42168,0 8.09098,-9.80163 9.92164,-14.7062 z m -79.12932,5.05913 c -4.08297,-0.82431 -7.42545,-2.43168 -7.42545,-3.57539 0,-3.16324 27.48709,-1.08679 37.04244,-3.96794 l 28.26792,-10.64382 c -12.78619,6.67311 -23.44617,16.56468 -42.01532,20.60919 -1.67583,8.09683 -11.78663,-1.60806 -15.86959,-2.42204 z m 75.79712,-20.03041 c 4.27837,-8.00598 7.60914,-2.78058 3.23724,8.26112 -5.37736,13.58106 -24.11897,44.96511 -5.21188,3.24812 1.41813,-3.26193 0.48338,-8.71694 1.97464,-11.50924 z m -53.15766,23.66308 c 2.31253,-0.2771 32.27923,-18.8816 34.45685,-17.3214 l 8.58558,0.0239 -4.48731,8.28129 c -1.63659,3.02029 -25.94569,7.50889 -27.89977,7.61192 -13.0035,5.92306 -17.7779,2.25775 -10.65535,1.40429 z m -37.26985,-13.31816 c -7.53672,-8.76997 32.14394,0.048 34.56081,1.37039 1.5301,0.83715 -22.55944,0.88613 -26.47785,0.84491 -3.92869,-0.0515 -10.39696,-1.61769 -8.08296,-2.2153 z m 34.38701,-4.50272 c 2.06719,-2.06074 3.0545,-5.0076 2.20089,-6.54285 -1.01816,-1.81345 -0.44225,-1.75163 1.63523,0.19577 1.76894,1.63829 7.49744,2.97776 12.75284,2.97776 8.13509,0 5.23413,-0.577 14.65475,-9.87094 8.55676,-8.44904 16.79158,-10.86264 18.37924,-8.26358 5.14854,8.42844 -25.51599,24.69798 -44.29557,25.07922 -8.27919,0.16808 -8.75212,-0.14425 -5.32738,-3.57538 z m -32.20476,-1.11795 c -22.92423,0 -14.58048,9.27244 9.35247,-2.97263 16.57047,-8.4781 24.27313,-3.65196 22.32324,0.99431 -0.97895,2.33266 -3.80924,5.53309 -5.67073,4.82214 -1.85124,-0.72126 -16.74888,-2.84382 -26.00498,-2.84382 z m 77.5082,-7.02198 c 6.90091,-7.21259 19.24409,-16.37927 21.25253,-15.12132 4.42207,2.76971 -23.09137,22.77979 -26.79592,22.2721 -0.70305,-0.0964 1.78953,-3.21477 5.54339,-7.15078 z m -24.23984,3.08349 c 0.028,-0.3919 -31.7839,0.59361 -0.7105,-3.9284 -1.20545,-0.15105 10.43477,-4.97464 8.30333,-3.37534 -2.79349,2.92342 -9.97641,9.52528 -7.59283,7.30374 z m -63.61263,-6.94248 c 14.3778,-0.96855 35.44525,-2.96927 38.38662,-3.9069 3.22935,-1.03038 3.12367,1.05818 3.12367,2.57283 0,3.45174 2.50839,-2.14991 -25.01355,7.41352 -15.72078,5.4627 -37.65733,-1.62317 -45.966236,-8.77643 z m 45.14958,-3.69543 c 0,-2.75108 37.32407,-21.00745 42.65146,-21.00745 9.07097,0 0.38051,12.13777 -14.21325,19.84494 -23.09913,13.39172 -35.1685,8.94052 -28.43821,1.16251 z m -81.297937,-4.94397 c -2.931075,-2.93656 -3.229325,-4.1627 -1.01814,-4.1627 1.717505,0 -0.185137,-3.11172 -4.247527,-6.91378 -4.062401,-3.79176 -7.384305,-8.11932 -7.384305,-9.60305 0,-1.47343 3.723006,1.04066 8.279047,5.5949 4.545779,4.56455 12.300327,9.50002 17.226632,10.97345 13.54475,4.04935 50.34284,5.66704 61.1005,2.67896 13.54475,-3.76084 13.33908,-1.4116 -0.2571,2.89534 -16.90782,5.35793 -67.908867,4.33787 -73.699107,-1.46312 z m 157.271317,0.59761 c 0.8022,-1.30857 1.94379,-2.38015 2.51973,-2.38015 0.57595,0 1.03873,1.07158 1.03873,2.38015 0,1.30857 -1.13128,2.38016 -2.50942,2.38016 -1.38841,0 -1.8615,-1.07159 -1.04904,-2.38016 z m -8.3202,-4.76031 c 0,-2.61714 -10.43099,-3.30315 -11.82969,-3.30315 -4.44292,0 8.05527,-12.08028 12.7656,-12.987 3.87727,-0.74188 4.29895,0.17516 3.03395,6.52224 -1.78952,8.96423 3.30133,10.20067 8.91669,2.17409 2.00549,-2.86444 4.4635,-4.38939 5.46111,-3.38993 1.73809,1.74133 -22.31699,24.29127 -26.03998,24.42523 -0.97704,0.031 7.69232,-10.82434 7.69232,-13.44148 z m -21.99191,-0.51553 c -0.83301,-1.34978 1.39847,-7.76243 3.50678,-6.94843 4.11381,1.57646 7.78922,9.84412 4.36447,9.84412 -1.22387,0 -7.07931,-1.60772 -7.87125,-2.89569 z m -39.59196,-0.37058 c 1.27353,-2.29519 28.18271,-14.92711 32.8946,-13.36673 1.39873,0.4632 -28.78078,14.02616 -31.71186,14.16011 -1.19302,0.0515 -1.72781,-0.30911 -1.18274,-0.79338 z m -40.60339,-1.58677 c 12.70141,-0.97886 26.64161,-6.44097 34.65774,-8.92236 18.50573,-5.72848 39.56267,-9.31815 13.97931,3.86439 -17.61896,9.07865 -22.31564,9.16755 -47.44403,6.95385 l -23.76759,-0.15456 z m -19.78746,-4.46151 c -6.53071,-1.08189 -13.65789,-4.09057 -16.56842,-7.00652 l -5.101136,-5.11063 12.824846,0 c 11.26157,0 52.22494,6.31616 54.39498,8.3872 1.27528,1.22615 -19.07784,5.37854 -26.94554,5.50218 -3.92868,0.0618 -12.29002,-0.73155 -18.60473,-1.77223 z m -28.119026,-3.80359 c -5.214252,-4.75001 -13.146818,-10.70644 -10.657958,-10.75796 2.046636,-0.0412 14.589213,6.96392 19.349494,9.59516 27.5204,15.21186 9.14432,14.08772 -8.691536,1.1628 z m 140.590826,-5.93341 c 1.52212,-2.84382 3.29106,-4.62636 3.94929,-3.97723 0.64791,0.65943 -0.0514,3.51356 -1.57354,6.35738 -1.52213,2.84382 -3.50476,3.18532 -3.94927,3.98754 -4.41139,7.9613 -19.52327,-11.80399 -8.85177,-3.24697 5.01434,-1.65137 4.85438,-6.22008 10.42529,-3.12072 z m 18.15222,1.19522 c -0.75075,-1.968 -0.3291,-3.57537 0.93591,-3.57537 1.26501,0 2.66343,3.04036 4.61179,3.31778 4.44862,0.63342 -6.63534,11.32022 -7.14958,11.32022 -2.78929,-0.49964 -0.96397,-8.49159 1.60188,-11.06263 z m -51.01081,-2.54168 c -5.12172,-2.00922 2.27237,-4.35149 12.25865,-6.75226 11.36372,0.28744 5.10771,-38.25104 6.92886,1.4598 0.21457,5.05734 14.67764,-0.66445 11.33517,2.68425 -2.06719,2.07105 -24.6605,4.90593 -30.52268,2.60821 z m -21.61758,-2.73381 c 0.0449,-3.05647 0.55286,-9.43039 -2.71619,-13.42573 -2.76783,-3.38276 1.35119,8.48356 2.25797,7.19947 3.87414,-5.48613 -17.84507,-43.3629 -25.54926,-51.31116 -3.56824,-3.68126 -11.33608,-9.76791 -18.52496,-13.42573 -7.18888,-3.66811 -17.41299,-11.29557 -23.29575,-16.76684 l -9.59493,-10.88677 7.85736,1.31887 c 4.31951,0.72126 12.86598,5.40944 19.00585,10.41704 6.13986,5.0076 16.1159,13.02389 22.17349,17.82541 6.0576,4.80153 16.17386,14.21639 20.7505,21.13018 8.9784,13.55968 17.66229,42.64976 15.44082,48.44045 -2.10832,5.51247 -7.8049,5.77007 -7.8049,-0.51519 z m -9.49372,-2.58624 c -5.24511,-12.69416 -20.86735,-25.96533 -38.48478,-32.71425 -17.65855,-6.75923 -49.483534,-27.80123 -59.753206,-41.30755 -15.584921,-20.49678 -10.545265,-16.0345 4.844018,-1.95771 16.333455,14.94043 17.689433,14.07486 3.085373,-2.34925 -6.643819,-7.45988 -12.074068,-15.67194 -12.074068,-18.24786 0,-2.57593 0.380537,-4.24513 0.853611,-3.69904 0.462801,0.5461 7.27118,8.54178 15.118287,17.7533 10.263985,12.04502 18.543043,19.01032 29.454955,24.7701 8.34076,4.40998 21.65375,11.12739 28.60609,15.70224 14.76863,9.70609 34.62308,35.5763 35.2815,43.32769 1.09694,12.91362 -3.47988,7.40911 -6.93178,-1.27767 z m -17.39118,-0.99945 c -7.24191,-3.9153 -15.61886,-8.08363 -18.98473,-10.09249 -5.6016,-3.34323 -16.75719,-9.01035 -24.86856,-11.8235 -8.664035,-3.00481 -18.399048,-5.49187 -21.114178,-7.2435 -2.704845,-1.76193 -8.407719,-1.32441 -11.58563,-2.00446 -3.167668,-0.69035 -1.136355,-3.34316 3.440263,-2.9104 11.642116,1.09219 43.627045,9.88126 52.235225,14.33245 4.41207,2.28742 7.97398,2.52544 7.17861,1.16431 -0.86144,-1.47415 -15.13829,-6.96915 -33.98794,-12.61597 C 90.72816,369.43865 83.77927,367.0245 79.630565,361.0951 l -7.127186,-6.90348 8.90643,3.69903 c 27.259441,12.43673 14.942279,-0.49549 -0.596513,-4.69849 -10.423918,-2.81952 -12.715441,-6.72901 -12.649992,-10.60251 0.09572,-5.66488 2.170567,-4.2333 19.479463,8.79058 12.865953,9.67518 28.264463,19.19498 38.035263,22.93392 17.55681,6.71837 27.98533,20.35698 34.87137,27.92364 16.61739,18.2599 7.54094,13.17268 -11.37474,1.61769 z m 102.42397,3.25082 c -0.83294,0.49236 7.75074,-11.12069 14.16331,-24.00648 11.06565,-22.23595 9.40989,-23.27287 11.60964,-36.64628 2.22672,-13.53741 -7.50277,-17.5443 2.24202,-9.92247 4.05717,3.17331 9.37974,4.27178 9.05787,14.40783 -0.42597,13.41522 -8.9653,23.7777 -18.73562,39.74845 -6.20158,10.14914 -12.25918,18.45394 -13.46249,18.45394 -1.193,0 -4.87473,-1.40646 -4.87473,-2.03499 z m -64.73108,-9.26819 c -2.14946,-16.25924 -13.24651,-37.71156 -27.9534,-54.04293 l -22.17949,-22.95479 c 7.44113,4.9568 14.4461,9.04133 22.32347,14.87063 14.7858,7.98444 34.3719,24.42613 26.31816,33.31794 -4.00102,4.41735 4.50733,6.19199 5.35825,1.4219 0.81,-4.54074 1.5228,-3.65469 6.05759,5.35793 6.14492,12.21265 10.55563,18.77104 2.4683,27.27391 -7.77679,8.17638 -10.66508,7.72779 -12.39288,-5.24459 z m -117.778644,-5.0179 c -3.188214,-2.30802 -6.294142,-5.71856 -6.911211,-7.56292 -0.617058,-1.84436 2.344876,-0.44305 6.571827,3.12203 8.515621,7.18167 16.856368,10.02551 23.942412,8.17083 2.571145,-0.66974 8.515606,0.74187 13.215656,3.14264 l 44.39651,13.00898 -43.75887,-7.82622 c -13.630912,4.4794 -30.733724,-3.7043 -37.456324,-12.05534 z M 250.5289,387.2356 c 5.72337,-17.90527 8.04252,-32.01361 1.37813,-46.72731 -2.76347,-6.10118 -3.54818,-9.93277 -1.91294,-9.38666 4.94688,1.64858 11.82726,26.00654 10.27427,36.36178 -1.55295,10.39642 -16.88803,45.13099 -18.18389,41.24648 -0.43195,-1.31887 5.06081,-14.70414 8.44443,-21.49429 z M 75.619611,402.75298 c 1.717503,-0.68004 3.764128,-0.59761 4.55605,0.19578 0.791902,0.78307 -0.617088,1.34978 -3.126514,1.24674 -2.766534,-0.11328 -3.321915,-0.68004 -1.429536,-1.44252 z m 33.866999,-10.48917 -22.639454,-13.84452 22.073804,8.39386 c 6.89066,1.58677 54.89205,25.82281 54.89205,27.94537 0,3.99784 -48.2791,-16.43613 -54.3264,-22.49471 z m 256.10582,4.90456 c -4.80288,-1.33948 -11.22045,-4.51302 -14.26467,-7.04773 l -5.53308,-4.62636 9.86287,-0.0824 c 7.1272,-0.0515 13.81793,-1.15254 22.26155,-6.84019 l 6.14282,-1.97391 c 6.83761,1.38923 13.20834,4.34023 19.24396,6.53698 5.21426,1.98861 5.56392,2.78199 2.75624,6.17192 -7.61057,9.1909 -24.1584,12.40566 -40.46969,7.86172 z m -159.42079,-3.40021 c -4.39752,-20.92242 -25.61293,-51.08609 -51.89584,-64.43938 -14.40669,-7.31947 -25.93762,-18.58789 -22.51287,-22.01901 0.78163,-0.78309 5.40971,2.38015 10.29485,7.02712 4.87485,4.64697 14.57322,11.49893 21.55642,15.21857 14.82003,7.91325 29.44464,21.79234 33.64074,31.95179 1.63524,3.93601 3.91841,7.16107 5.09086,7.16107 1.17245,0 0.12194,-5.72352 -3.85673,-11.82865 -7.08252,-10.86791 -22.32209,-25.26925 -40.43882,-35.29019 -10.76622,-5.95513 -22.95513,-17.17627 -17.63801,-17.14536 4.04184,0.0206 41.44594,29.11672 55.08403,40.0402 11.42505,9.15091 19.00441,28.95769 18.39906,42.96644 0,9.50002 -2.23767,18.35896 -6.00617,12.20989 -0.90283,-1.47316 -2.40658,-2.27712 -1.71752,-5.85249 z M 87.24113,384.24753 c -6.263273,-3.64751 -10.839911,-7.18168 -10.171427,-7.86173 1.285573,-1.27765 32.262637,18.13452 32.262637,20.21587 0,0.64914 -2.40657,-0.37093 -5.34796,-2.26681 -2.9414,-1.89588 -10.469654,-6.43981 -16.74325,-10.08733 z m 147.22332,6.93439 c 0.77134,-2.01952 3.2578,-24.07171 3.87486,-23.44318 0.62735,0.61822 0.88334,31.43338 0.88334,31.43338 -14.74871,18.1107 -10.29687,2.10482 -4.7582,-7.9902 z m -24.79607,-34.16709 c -6.90548,-12.23601 -23.80595,-24.26186 -52.61573,-47.94314 -12.83868,-10.55322 -9.98629,-9.11878 5.15255,0.21638 11.57012,7.13016 20.46847,5.28944 9.93488,1.1025 -34.2458,-13.61218 -1.68273,-4.3104 6.37641,1.32917 3.83928,2.68662 8.41275,7.81021 10.22285,11.30317 1.81008,3.50326 6.61297,10.10794 10.67538,14.69308 12.11517,13.64212 21.14404,34.85744 20.82524,47.40736 l 0.54805,20.37673 c -1.23375,-7.69351 -3.94958,-12.33323 -2.96489,-18.75905 -1.18272,-7.09926 -4.56538,-22.46208 -8.15469,-29.7262 z M 70.086355,386.14312 c -8.279078,-4.31725 -9.646761,-9.984 -11.868219,-17.29963 l -1.758667,-5.79069 7.116913,5.79069 c 3.918427,3.17354 6.695245,6.52225 6.181039,7.42897 -0.514248,0.90673 3.89782,4.49241 9.811445,7.96477 5.913606,3.47234 16.670458,8.01083 17.048923,8.37539 3.377699,3.25356 -21.147139,1.7738 -26.531434,-6.4695 z m 190.179305,-6.58378 c 3.55846,-9.36607 4.08568,-28.77824 -0.0281,-38.63889 -4.54577,-10.90132 -4.72062,-10.34493 3.29106,-10.34493 7.84695,-7.2e-4 15.10908,2.85571 10.47832,20.64463 1.33436,8.02662 -2.52694,16.48463 -6.90959,24.24862 -13.69894,26.42125 -31.80328,53.84039 -6.83166,4.09057 z M 224.6324,354.38739 c -2.35514,-4.58514 -7.43443,-12.96294 -11.29243,-18.6188 -8.73056,-12.79909 -7.03187,-15.81714 2.00549,-7.38775 15.68394,14.61065 22.72909,36.92524 18.19338,54.57873 -9.20155,34.85907 -9.28874,21.59725 -3.16765,-7.15078 0.48043,-7.23088 -3.39391,-16.84655 -5.73879,-21.4214 z m 179.69163,25.93443 c -9.22522,-3.21476 -16.89907,-1.25117 -17.21786,-14.62538 -0.24686,-10.23159 -0.24686,-10.24188 -2.10836,-2.38015 -3.7127,15.71314 -15.20929,19.64328 -34.93504,19.64328 -14.90231,0 -25.6291,-6.9344 -44.49096,-28.73704 -7.73399,-8.95392 -18.61504,-18.69092 -24.15842,-21.63778 l -10.08913,-5.36823 9.37949,-6.91379 9.37954,-6.90348 18.34761,11.9729 c 10.08916,6.59438 23.42819,14.42519 29.64009,17.40297 12.47512,5.98645 14.41892,10.72615 5.34795,13.01358 -3.27049,0.82429 -5.94446,2.42137 -5.94446,3.55477 0,2.70988 12.47514,-2.07104 14.66576,-5.62582 2.458,-3.96693 -2.05692,-8.40782 -15.47825,-15.22887 -18.96471,-9.62367 -44.35725,-27.38725 -42.79399,-29.92197 3.08535,-4.99729 24.18924,-12.27171 40.03774,-13.78635 l 16.64037,-1.59708 -14.83029,-0.35033 c -9.57493,-0.22668 -19.04698,1.25706 -26.72953,4.18331 -9.26639,3.52387 -11.90954,3.82267 -11.90954,1.34978 0,-8.72724 -27.90195,-18.76304 -37.16833,-13.36391 -3.55847,2.07106 -1.88209,2.58624 8.6493,2.65836 10.11999,0.0618 14.66575,1.3601 20.14744,5.75978 6.43812,5.15185 6.80837,6.19252 4.04181,11.36498 -1.67637,3.13232 -8.3819,9.34547 -14.92287,13.80697 -11.19988,7.66595 -13.04081,8.12962 -32.55059,8.26357 -20.16802,0.14426 -21.35075,-0.16486 -47.80258,-12.61173 -32.23181,-15.16705 -47.62777,-17.70177 -66.3765,-10.95285 -10.80905,3.89481 -13.78128,4.00815 -32.005502,1.16433 -11.786069,-1.83407 -29.485774,-2.63776 -42.865991,-1.9371 -34.309252,1.80314 -39.348685,-2.782 -49.0984256,-44.65626 -5.533096,-23.75004 -4.885167,-29.94257 4.9262906,-47.52069 3.651011,-6.55316 7.374027,-15.96044 8.279058,-20.91653 0.894765,-4.95608 3.681877,-11.38558 6.181021,-14.28093 4.545768,-5.27549 4.545768,-5.26519 3.352762,9.00543 -1.100453,13.26088 -1.018171,13.6009 1.254714,4.76032 1.336986,-5.23428 2.951669,-12.02442 3.589304,-15.08462 2.643133,-12.7766 22.34833,-23.50276 22.34833,-12.16868 0,2.75109 7.00378,12.36444 16.054172,22.01902 8.824145,9.42788 17.802568,19.82432 19.931447,23.0906 2.139204,3.27658 4.525223,5.33733 5.306831,4.59545 0.781619,-0.75217 -7.158045,-10.91162 -17.658563,-22.58571 -10.490243,-11.67411 -19.694904,-23.69853 -20.455967,-26.71751 -2.859103,-11.43712 4.278377,-22.24571 24.209824,-36.67089 20.414835,-14.78582 23.952705,-16.1253 25.629095,-9.68548 0.67878,2.57592 1.19301,1.6898 1.35757,-2.33895 0.21596,-5.04881 2.37574,-7.56291 9.68804,-11.30316 5.18342,-2.648044 11.57012,-4.811824 14.20297,-4.811824 4.12407,0 4.47377,0.824292 2.52998,5.955534 -1.24443,3.26628 -1.42956,5.94524 -0.42168,5.94524 1.01819,0 3.19852,-3.74025 4.85433,-8.32539 6.06789,-16.815644 23.28422,-24.275528 58.90988,-25.52228 17.55572,-0.618216 19.17042,-0.309108 17.22661,3.328104 -1.18271,2.215296 -2.08776,5.430048 -2.02603,7.150764 0.072,1.720716 1.70723,-0.618216 3.64072,-5.203368 4.54578,-10.808592 20.31198,-22.03962 31.36788,-22.369344 7.27117,-0.206076 9.48236,1.133412 15.77649,9.582444 4.02125,5.409444 10.22284,15.043416 13.771,21.431712 3.55846,6.377988 10.44911,17.835698 15.31369,25.450148 8.37165,13.1063 8.68018,14.28093 5.69766,21.4317 -1.72782,4.1627 -3.47619,11.85956 -3.87729,17.09385 l -0.71991,9.52062 1.7278,-9.58244 c 0.94619,-5.2755 3.50703,-12.13777 5.67707,-15.23918 3.5173,-5.02821 3.57903,-6.55316 0.56566,-13.76576 -1.86152,-4.4615 -5.67708,-11.34438 -8.48479,-15.30099 -3.88753,-5.47127 -4.45319,-7.85143 -2.34485,-9.96368 2.10833,-2.101956 3.30132,-1.916496 5.00858,0.783084 1.93348,3.060186 2.24204,3.018976 2.27288,-0.360636 0.0412,-4.482108 -6.23243,-7.727784 -8.34076,-4.317252 -2.78713,4.523328 -5.90335,2.071044 -11.54956,-9.087864 -6.47927,-12.817812 -5.31711,-16.609572 7.08606,-23.090604 4.23724,-2.215296 5.36852,-3.616608 2.9311,-3.626904 -2.19063,-0.0108 -7.10664,2.61714 -10.9222,5.8422 l -6.94208,5.8422 -4.92627,-6.666504 c -2.70485,-3.67842 -9.01956,-8.57268 -14.02816,-10.891008 -8.20705,-3.791772 -17.23689,-12.024432 -17.38086,-15.836796 -0.0308,-0.793392 2.49915,-0.958248 5.60507,-0.370932 3.11622,0.597612 8.59788,-0.453372 12.1769,-2.328636 6.28386,-3.3075 6.06789,-3.389928 -6.25298,-2.503812 -7.02436,0.504888 -13.84302,0.07212 -15.15945,-0.968544 -3.69216,-2.926248 -16.01304,-19.95828 -15.07714,-20.854692 2.1906,-2.0813523 27.44946,-8.4181335 33.54819,-8.4181335 9.64691,0 7.14777,5.399142 -3.7847,8.1605295 -4.80288,1.21584 -8.7316,3.091116 -8.7316,4.162704 0,2.967468 1.39872,2.57592 19.80804,-5.6155203 10.95304,-4.8839568 22.1118,-7.93385406 31.2856,-8.56238046 l 14.2647,-0.96854761 3.94924,10.34492407 c 2.17004,5.6876403 8.0014,19.9788843 12.95853,31.7663163 8.46419,20.123136 9.05041,23.11122 9.64691,49.25172 0.56567,24.306428 1.70723,31.106878 9.02983,53.795638 4.60749,14.28093 10.60473,18.68722 14.12974,34.9583 l 2.17976,10.06159 c 0.37707,3.72234 6.55915,11.24207 0.40263,12.35097 -0.41424,0.0746 -1.45265,0.18566 -5.47708,-4.81079 l -9.95976,-12.36532 c -3.34961,-4.15863 -12.9277,-7.19198 -20.79535,-8.80967 -7.52832,-1.55586 -20.1063,-4.40998 -27.95341,-6.33678 -7.83682,-1.9371 -21.16559,-4.42028 -29.60921,-5.52278 -21.00103,-2.74079 -24.61091,-8.30479 -16.36272,-25.21316 1.34727,-2.7511 6.35585,-7.28472 11.13817,-10.06673 4.78232,-2.7717 7.50772,-5.06943 6.05761,-5.10034 -1.45014,-0.031 -6.57186,2.61714 -11.37474,5.88342 -7.16832,4.87366 -8.96813,5.30641 -10.07885,2.41107 -1.5941,-4.1627 -0.0514,-21.79234 2.48886,-28.58248 1.78954,-4.750002 1.77924,-4.750002 -2.05692,-0.031 -3.15734,3.8948 -3.69214,9.51032 -2.9928,31.54994 0.81249,25.48107 0.61708,26.81025 -3.88754,26.81025 -2.60197,0 -6.54099,1.63829 -8.74188,3.63721 -3.16762,2.86442 -5.41993,3.10141 -10.62393,1.1231 -3.63045,-1.38069 -7.13745,-1.97832 -7.78539,-1.31887 -0.65823,0.64913 1.89234,2.35955 5.66677,3.79176 3.76416,1.44252 10.32569,5.2755 14.5835,8.52117 6.57181,5.0282 7.73397,7.41866 7.72367,15.90891 0,5.58461 -1.9849,13.24026 -4.47375,17.34114 -4.07268,6.68711 -5.276,7.21259 -13.65786,5.93494 -5.04974,-0.77278 -13.5345,-3.72995 -18.85161,-6.57377 -16.60953,-8.87149 -38.9373,-37.39214 -43.98701,-56.19641 -2.96194,-11.02496 -9.84231,-18.39211 -17.05178,-18.26846 -4.61774,0.0824 -4.36064,0.52548 1.95407,3.27657 5.76962,2.52441 8.38193,6.16162 12.47516,17.40296 6.88035,18.9073 26.57525,44.61505 41.11761,53.672 7.81627,4.86335 11.61126,8.85089 11.66269,12.2202 0.072,4.54393 0.29823,4.61605 2.49915,0.8346 3.77441,-6.50165 9.77032,-5.02821 27.15121,6.64589 8.85498,5.94523 20.75419,12.06564 26.46212,13.59059 11.03533,2.95716 11.81695,4.13178 7.79568,11.65349 -2.60198,4.87365 -30.10286,19.36065 -33.15737,17.47508 -0.91533,-0.57701 -2.95167,-7.59383 -4.52521,-15.61012 -1.57354,-8.01627 -3.39389,-14.04394 -4.05211,-13.38451 -0.64794,0.64914 0.11316,7.81021 1.70724,15.90892 l 2.88996,14.71369 -7.5283,7.54231 c -7.0552,7.06835 -8.57731,7.53202 -24.70346,7.53202 -19.21157,0 -34.4121,-5.93494 -38.54648,-15.05371 -1.28559,-2.85413 -3.18824,-5.18277 -4.21668,-5.18277 -1.02846,0 -0.29824,3.06019 1.63524,6.80044 6.07817,11.76684 38.21738,22.5033 51.78269,17.28962 4.16525,-1.59708 6.96265,-1.65889 7.88825,-0.15456 3.59959,5.8422 20.40455,11.76684 32.49919,11.45772 l 12.56771,-0.32971 -14.2544,-1.6486 c -7.84708,-0.89642 -16.39358,-2.86442 -19.01613,-4.34816 -11.72437,-6.6974 -11.73465,-6.75923 -3.29103,-14.4561 4.42236,-4.02875 9.12237,-7.36715 10.4285,-7.41866 4.84404,-0.19577 27.07924,-11.71532 31.87182,-16.50654 2.72544,-2.73048 4.95718,-7.64535 4.95718,-10.92192 0,-8.3151 4.05211,-7.43928 5.96504,1.27765 2.32429,10.60251 23.86014,37.63944 30.21597,37.92794 0.9462,0.0412 -2.8488,-4.50272 -8.4436,-10.09763 -10.85018,-10.88072 -20.61023,-28.42792 -20.61023,-37.08303 0,-7.33625 6.37641,-21.85416 12.41345,-28.30428 2.77682,-2.95718 3.95954,-5.38884 2.63285,-5.38884 -4.17552,0 -10.37711,8.55207 -14.92289,20.5662 -4.00069,10.6025 -5.08056,11.64318 -12.92767,12.31292 -6.11929,0.53579 -12.7117,-1.47343 -23.08881,-7.00652 -7.9808,-4.26574 -15.02573,-9.07756 -15.64283,-10.69524 -0.61706,-1.61769 1.03878,-5.96585 3.69218,-9.65458 2.64314,-3.68873 5.50224,-10.61281 6.34557,-15.39373 1.35756,-7.66596 0.54507,-9.77823 -7.00377,-18.15514 -6.58211,-7.28472 -7.8574,-10.0358 -5.56396,-11.93168 7.48716,-6.18222 93.53796,8.45934 110.26065,18.76304 7.33288,4.52333 15.10802,17.10415 15.10802,24.4507 0,14.37367 -17.854,30.07651 -34.19615,30.07651 -4.80288,0 -8.58758,1.18493 -8.58758,2.69957 0,1.85467 3.14706,2.15348 10.09941,0.95825 5.55366,-0.95825 13.29792,-1.90619 17.20605,-2.10196 6.5307,-0.32971 7.10661,0.2782 7.12719,7.56292 0.0308,9.92247 5.42946,14.14268 20.7028,16.16652 8.78681,1.16431 13.19383,3.22506 17.40146,8.54177 6.37114,8.05048 7.27118,11.46802 2.92083,15.79558 -1.63525,1.61768 -5.64624,8.53146 -8.91671,15.35252 -5.11145,10.68494 -7.09637,12.61173 -14.25438,13.87909 -7.24032,1.27766 -7.4769,1.51465 -1.77925,1.78254 4.50464,0.21638 6.54098,1.60737 6.57183,4.48212 0.0108,2.28741 1.15187,5.77007 2.51972,7.73808 1.8512,2.66865 2.10835,1.67949 1.00788,-3.93601 -0.88446,-4.50273 -0.41138,-8.17085 1.17244,-9.1497 1.45013,-0.89643 5.29655,-7.66595 8.55674,-15.0228 8.855,-20.06132 14.0384,-21.64809 30.66854,-9.38668 14.93315,11.00436 18.73843,20.08193 17.15461,40.8851 -0.76104,10.04612 -0.4731,14.91977 0.70963,12.08625 3.2705,-7.79991 2.602,-31.85905 -1.07986,-38.98921 -4.43266,-8.5933 -23.3768,-24.10037 -29.42409,-24.10037 -4.21669,0 -16.20848,-15.19797 -15.25201,-19.31945 0.18514,-0.80369 -6.181,-2.14318 -14.1618,-2.97778 -17.18549,-1.79284 -20.90849,-4.34816 -20.95993,-14.31184 -0.0206,-4.09058 0.0257,-10.74213 -2.10832,-10.71586 -8.90107,0.10956 -1.37815,-5.74706 3.59959,-11.64318 3.58552,-4.24704 5.67708,-11.42681 5.67708,-15.17736 0,-11.79774 9.24579,-9.02604 23.02708,6.88288 13.47276,15.5586 17.37061,22.02932 17.37061,28.87098 0,2.62744 1.22386,5.53309 2.72541,6.46042 2.68426,1.6692 1.86152,-4.76031 -1.86152,-14.48701 -1.49124,-3.8948 41.46731,29.46859 49.54067,38.47404 4.2064,4.69848 10.54168,18.3715 13.96643,30.17955 1.61466,5.564 0.90503,7.81021 -4.02125,12.74569 -3.29106,3.29718 -5.55366,6.41921 -5.02914,6.94469 0.5245,0.52549 2.88995,-1.19523 5.26567,-3.82268 2.37573,-2.62744 5.21427,-4.77061 6.325,-4.77061 2.77685,0 2.48886,18.38181 -0.4628,29.02554 -2.97224,10.74676 -19.88004,26.35687 -33.9493,31.35418 -12.3723,4.39968 -15.64279,4.56453 -25.06344,1.26735 z m -23.57904,-33.52445 c 4.57661,-4.00814 13.4316,-10.49947 19.67433,-14.42518 10.63422,-6.69741 18.35793,-16.70231 18.34763,-23.80156 0,-1.70011 -1.87178,0.64913 -4.1652,5.21368 -2.42718,4.86334 -9.58522,11.93168 -17.21638,17.01141 -11.12785,7.38775 -29.23896,23.69853 -25.99932,23.39971 0.57592,-0.0618 4.7823,-3.3796 9.35894,-7.39806 z M 50.658997,287.69151 c -7.775118,-3.13233 -13.061375,-12.60143 -11.487842,-20.5559 1.265006,-6.4192 1.193006,-6.50163 -1.439835,-1.44252 -3.46589,6.6562 -9.091534,6.84166 -15.879343,0.50489 -4.504633,-4.20391 -5.203978,-7.37745 -5.203978,-23.81186 0,-16.07379 0.761058,-19.711 4.987998,-23.94582 4.854313,-4.86335 8.721302,-5.06943 19.972605,-1.07158 4.679461,1.6692 4.679461,1.63829 0.133696,-2.07104 -6.345568,-5.18277 -17.010643,-4.71911 -22.708285,0.99945 -3.969836,3.96693 -4.761742,7.93385 -4.761742,23.95612 0,21.9675 1.882064,26.79994 12.516297,32.32272 4.196092,2.16378 10.479952,6.99622 13.956126,10.73646 3.486459,3.72995 8.309914,6.71802 10.726772,6.63559 3.723017,-0.12365 3.599599,-0.47397 -0.812469,-2.25651 z m 37.158068,-11.57106 c 1.552985,-3.75056 5.563928,-8.0781 8.916714,-9.61336 3.342471,-1.52495 5.450801,-3.42083 4.669181,-4.20391 -0.78164,-0.78309 -3.969849,0.24728 -7.075778,2.28741 -5.14227,3.37962 -6.1913,3.34871 -11.775774,-0.3194 -6.510128,-4.27604 -14.388104,-13.46695 -16.640433,-19.41218 -0.935885,-2.4832 -1.40899,-2.02984 -1.542681,1.48372 -0.113112,3.10143 3.969843,8.8921 10.531386,14.96099 8.813862,8.12962 10.459384,10.94254 9.256086,15.77497 -2.005491,7.99568 0.195411,7.42898 3.661299,-0.95824 z m 120.977165,-5.88342 c 0.27765,-7.30533 -0.60681,-9.40728 -4.38124,-10.39644 -3.65101,-0.95824 -4.45321,-2.65835 -3.51732,-7.5114 1.18272,-6.11009 1.14159,-6.13071 -1.57353,-0.91703 -2.4683,4.75001 -4.55604,5.34762 -18.46078,5.25489 -8.62873,-0.0618 -19.92116,-1.61768 -25.09428,-3.47235 -10.55194,-3.76085 -13.95614,-3.06019 -5.94446,1.23644 2.87965,1.54557 15.99246,3.75055 29.12582,4.89426 13.14366,1.14372 24.6932,2.90565 25.67024,3.92572 0.98732,1.02007 2.24204,5.05911 2.79742,8.99514 0.89473,6.28525 1.05928,6.04826 1.37813,-2.00923 z m -87.01759,-25.14104 c -0.73019,-7.61444 -0.11316,-12.13777 1.82037,-13.33299 1.61467,-0.99947 13.94586,-1.9371 27.40831,-2.09166 22.53345,-0.25759 30.14403,-1.74132 26.6987,-5.20337 -0.74051,-0.74186 -5.95476,-0.10308 -11.59068,1.41161 -6.17074,1.6692 -16.07474,2.14317 -24.92978,1.18493 l -14.7069,-1.57647 -5.14225,-22.31783 c -4.37094,-18.9176 -6.94207,-24.74951 -16.89751,-38.25765 -6.458713,-8.76846 -11.703824,-14.9816 -11.662671,-13.82758 0.04111,1.16432 1.645523,4.1936 3.56874,6.73862 1.912934,2.53472 3.609872,7.89264 3.764131,11.90079 0.14399,4.00813 0.76107,5.40944 1.35756,3.11171 3.0031,-11.48864 11.05589,3.13233 17.36033,31.48813 2.70483,12.16867 4.35035,22.69906 3.66129,23.39971 -0.69935,0.70066 -1.26499,-0.0515 -1.26499,-1.65889 0,-2.17409 -6.43813,-2.7614 -24.898898,-2.26682 -22.060357,0.577 -25.649672,0.0928 -31.491287,-4.27604 -4.741177,-3.53417 -6.972928,-7.71747 -7.949958,-14.87855 -0.750758,-5.47126 -3.280761,-11.78744 -5.625648,-14.03365 -4.072683,-3.8948 -4.124099,-3.81237 -1.141589,1.87528 1.707243,3.27657 3.702442,10.12854 4.432635,15.22887 0.915329,6.48104 3.3425,10.77769 8.042515,14.28094 6.016499,4.47181 9.379536,4.93548 31.491308,4.28634 19.088102,-0.5667 24.806312,-0.0206 24.970882,2.38015 0.11311,1.71042 0.0411,8.08841 -0.16457,14.17791 -0.20568,6.07919 0.60678,11.67409 1.81008,12.41597 1.26501,0.78307 1.71752,-3.48266 1.07988,-10.15946 z M 29.987058,241.7988 c -0.370243,-7.57322 -2.067191,-15.07431 -3.784709,-16.66109 -2.519718,-2.33894 -2.776832,-1.98861 -1.336997,1.86497 0.987321,2.62745 2.694549,10.11825 3.795,16.6714 l 2.005484,11.90078 z M 193.42908,145.98464 c -4.96744,-7.60413 -3.29106,-25.21316 3.70244,-38.95831 5.80048,-11.375284 6.181,-17.639932 1.31643,-21.678988 -4.03155,-3.359004 -4.58689,-1.617684 -1.40897,4.348164 1.50155,2.792304 0.43195,8.0472 -3.46591,17.104144 -3.09564,7.18169 -5.66679,17.56782 -5.71821,23.07 -0.10284,10.35522 3.87728,22.14267 7.4666,22.14267 1.1313,0 0.27766,-2.72019 -1.89238,-6.02768 z m -75.54,201.12833 c -21.685634,-7.60352 -25.814204,-15.78528 -35.080594,-27.243 -6.348134,-7.84933 -10.531366,-14.62095 -9.297199,-15.03309 1.244409,-0.41215 7.497429,4.40997 13.904696,10.70555 17.422007,17.13505 36.413917,32.65398 37.805997,30.85959 1.78327,-2.29863 -9.73567,-8.13573 -20.84911,-18.52759 -13.37535,-12.50689 -21.307266,-21.11076 -16.185562,-21.11076 1.594097,0 8.87556,5.69795 16.177592,12.66325 7.31232,6.96531 20.09602,16.29016 28.4265,20.72075 15.60166,8.30479 23.18011,16.89595 30.65699,34.94804 l 6.92735,18.48572 -16.21306,-21.46137 c -7.00379,-6.61497 -23.33562,-17.86662 -36.2736,-25.00709 z m 101.54724,19.01549 c -3.25282,-3.66296 -6.06311,-17.94469 -13.13098,-25.4553 -17.09682,-18.16781 -18.01515,-25.33135 -13.44189,-23.87369 5.40491,0.29074 26.15621,30.34412 29.25955,41.15301 1.6558,3.93601 4.79502,10.84583 4.39147,15.47616 -5.4015,65.01108 -2.26692,14.81378 -7.07815,-7.30018 z m 29.24136,-23.29152 c 2.11861,-3.20445 6.14143,20.51683 3.95956,27.65514 -14.77263,47.56924 -8.51555,26.93463 -3.18822,-8.96423 1.44527,-9.73912 -1.0696,-18.23755 -0.77134,-18.69091 z m -12.46487,-7.17138 -4.04183,-6.28526 5.5228,4.77061 c 4.81318,4.14209 5.33769,4.21422 4.01098,0.58732 -2.10833,-5.79069 -0.0206,-5.21368 3.23964,0.88611 2.12889,3.98754 2.0672,4.65727 -0.31883,3.18385 -2.22148,-1.3807 -4.49815,1.17812 -1.20326,2.68926 4.4367,2.03483 4.31997,10.87058 4.0042,18.83518 l -6.7976,48.05034 0.92718,-49.14678 c -1.89236,-8.98483 -3.13211,-20.10859 -5.34328,-23.57063 z M 60.172203,358.73555 c -3.023663,-2.85412 -5.481675,-6.33678 -5.461098,-7.73808 0.0206,-1.41161 1.028475,-0.98915 2.252338,0.93764 1.21356,1.9268 2.972218,2.73048 3.908134,1.80315 0.935866,-0.93763 -0.08222,-3.66813 -2.252348,-6.07919 -6.078157,-6.72832 -3.779214,-9.45271 2.355169,-2.94686 4.464729,4.73509 17.685012,19.76224 19.162193,22.0601 1.597939,2.48572 -16.300886,-2.11309 -19.964388,-8.03676 z M 222.53436,330.7816 c -2.28316,-2.84382 -1.8718,-2.92625 2.63285,-0.52548 2.9208,1.56615 7.41117,5.75467 8.90643,9.79881 6.41,17.33666 7.32668,45.52356 -2.62257,3.34871 -1.40729,-5.96544 -7.42546,-10.76737 -8.91671,-12.62204 z m 261.69031,0.72126 c -11.18958,-1.10249 -16.04386,-2.56563 -16.04386,-4.82213 0,-2.08135 2.79739,-3.24566 7.7751,-3.24566 4.2681,0 15.47824,-2.14318 24.89889,-4.76032 15.13886,-4.20391 19.10211,-3.53014 35.09088,-2.07104 19.10309,1.74327 17.43622,0.99624 12.56042,6.17191 -10.19199,11.46803 -15.75892,13.51847 -64.28143,8.72724 z M 55.081338,322.22952 c -1.174581,-22.93595 6.097114,2.97217 8.593362,7.22806 1.391845,2.20842 22.911504,19.37139 1.084414,4.69333 l -5.502231,-5.2961 c -3.033946,-2.90565 -4.905738,-5.89372 -4.175545,-6.62529 z m 63.048832,-10.08217 c 0,-4.48211 7.5649,-2.62229 14.01328,5.84735 l 21.51065,22.99598 c -7.86956,-6.96811 -16.31878,-12.77687 -23.60866,-20.90432 -4.85431,-3.70933 -11.91527,-6.78499 -11.91527,-7.93901 z m 350.52372,6.04313 c -4.3298,-4.33787 -3.4042,-9.04666 1.7895,-9.04666 12.75286,0 30.02058,-5.78037 36.42789,-12.19958 5.46107,-5.47127 8.92697,-6.84167 17.33972,-6.84167 11.19988,0 12.0535,1.14372 7.81625,10.46857 -3.11621,6.85197 -4.01095,7.29502 -29.39322,14.49731 -22.26604,6.32647 -30.06174,7.04773 -33.98014,3.12203 z M 57.220531,308.41225 c 0.164561,-5.0282 0.236542,-5.0488 2.211185,-0.45336 2.807688,6.55316 18.263247,22.14782 15.455559,20.4065 -1.306128,-0.814 -17.759282,-17.0887 -17.666744,-19.95314 z M 535.8017,299.02558 c 3.0442,-7.31563 4.15496,-7.86173 20.28111,-10.11823 17.55778,-2.45229 23.79126,-6.60468 23.79126,-15.84711 0,-2.31833 3.20878,-9.29394 7.12925,-15.48647 3.92148,-6.19252 7.08296,-13.46694 7.02538,-16.15621 -0.0659,-3.0705 -1.29072,-1.55586 -3.2921,4.05966 -1.75351,4.92517 -4.61262,10.8189 -6.35275,13.09601 -1.74015,2.27712 -3.32294,4.45121 -3.51525,4.81183 -0.19337,0.37093 -3.56877,-1.17462 -7.50158,-3.44143 -6.47307,-3.71964 -7.28658,-5.564 -8.58038,-19.4431 -0.78574,-8.42842 -0.85774,-16.25924 -0.15941,-17.39265 1.76791,-2.86443 14.34204,-2.77023 14.34204,0.14573 0,1.30857 2.4892,2.38015 3.95579,2.38015 1.84298,0 0.46553,-1.10249 -1.57903,-3.57538 -1.62702,-1.9577 -6.87855,-3.38109 -9.87135,-3.38109 -4.56633,0 -5.69865,-1.62798 -7.04181,-10.11824 -3.66749,-23.20394 -13.79058,-35.12533 -29.82418,-35.12533 -6.17073,0 -7.01407,-0.8346 -7.01407,-6.9447 0,-8.44904 -2.11861,-14.4767 -5.09083,-14.4767 -1.27531,0 -1.16217,1.94739 0.24681,4.60575 5.11144,9.55153 2.74598,24.02824 -7.28146,44.68717 -5.35825,11.03526 -9.29723,20.50437 -8.76243,21.04017 1.48097,1.49404 20.88791,-38.02068 20.88791,-42.544 0,-5.05913 9.55435,-5.31672 18.83101,-0.50489 12.59136,6.52224 19.18893,39.08197 10.8718,53.6617 -4.41311,7.73808 -4.40281,12.02442 0.0108,6.18222 3.14605,-4.16269 3.55023,-4.20391 4.97567,-0.48427 2.95884,7.72778 -0.867,23.39971 -7.27014,29.78802 0,0 -4.1599,4.48291 -6.93756,5.44624 -16.01795,5.55519 -54.72549,2.16819 -54.72549,2.16819 l -47.74399,-2.68926 -9.14296,-9.15999 c -9.1121,-9.12909 -9.13268,-9.19091 -5.30684,-16.59928 5.57423,-10.78798 16.25988,-15.51738 35.25545,-15.5792 11.05588,-0.031 14.84059,-0.73156 12.15633,-2.24621 -5.71821,-3.20445 -30.94621,-0.2988 -38.0837,4.38938 -5.82105,3.81237 -6.37641,3.79176 -10.47995,-0.38124 -4.0521,-4.11117 -4.11382,-5.48156 -0.91532,-20.5868 1.88208,-8.90241 3.83614,-20.67953 4.35039,-26.19202 0.51421,-5.50218 1.75863,-12.14807 2.76653,-14.76521 1.00787,-2.61714 0.96676,-3.96692 -0.10284,-2.99838 -1.06958,0.96855 -3.31159,0.62853 -4.97772,-0.76248 -2.42716,-2.00922 -2.76653,0.0412 -1.7278,10.15947 1.28558,12.47778 -4.42233,48.45831 -9.09152,57.2886 -1.265,2.40075 -4.9366,4.173 -8.64931,4.173 -4.97773,0.0108 -10.6651,-4.39968 -24.86803,-19.25763 -20.98049,-21.93659 -22.01922,-25.66653 -12.6603,-45.10962 4.58692,-9.53093 5.32741,-13.45664 3.63045,-19.36067 -2.60198,-9.09817 -8.84471,-16.33137 -13.91498,-16.11499 -2.69455,0.11328 -2.30375,0.88612 1.3884,2.66866 8.99898,4.35847 11.46726,14.44579 6.7364,27.52119 -2.25234,6.22344 -4.61778,15.22888 -5.26571,20.02011 -0.84333,6.31616 1.18364,8.34981 -2.4676,9.30722 -1.07721,1.15881 -6.59436,-9.57494 -6.64962,-19.57487 0.0413,-9.17035 -8.21224,-19.59249 -13.98188,-37.45912 -7.41513,-22.99787 -8.50532,-29.38617 -8.50532,-50.003878 0,-26.006544 -2.94138,-37.804296 -17.56602,-70.497948 -4.67945,-10.46856 -8.52587,-21.39049236 -8.54644,-24.2652268 -0.0412,-8.2223572 8.68016,-12.6426462 24.85775,-12.6014322 19.93146,0.05152 22.72885,2.297727 14.71719,11.8389582 -3.48646,4.1420905 -6.3353,8.2738753 -6.3353,9.1806013 0,2.6068392 8.83992,19.8758475 12.131,23.1833355 1.65583,1.648596 4.41685,11.282556 5.17791,21.390492 1.8718,24.718596 10.50052,41.503332 35.53312,69.137858 29.71203,32.77608 28.39563,30.75656 23.10937,35.55809 -2.46827,2.2359 -5.71822,7.94416 -7.23001,12.69417 -1.51185,4.75 -4.82349,12.39535 -7.35347,16.9805 l -4.6075,8.3254 5.204,-6.34709 c 2.8694,-3.48265 7.47686,-12.05533 10.2537,-19.04124 4.46348,-11.24135 6.21186,-13.10632 15.20055,-16.21804 14.06926,-4.88395 17.45289,-2.11226 21.00106,17.13507 4.72059,25.62531 10.46966,33.68281 29.98974,42.07003 16.2393,6.9756 25.58795,24.73919 18.72817,35.5993 -1.17246,1.83405 -9.45152,4.03905 -19.57151,5.20336 l -17.55572,2.01953 17.82314,-0.72126 c 21.03189,-0.8552 43.1848,-8.09871 52.698,-17.23809 3.6716,-3.51357 6.1296,-6.9344 5.48168,-7.58354 -0.65823,-0.65943 -4.1344,1.628 -7.73398,5.09004 -3.5996,3.45174 -11.07647,7.88234 -16.60956,9.84004 l -10.06858,3.55477 -0.0108,-8.81996 c -0.0108,-11.78745 -7.70315,-23.79126 -18.00825,-28.10852 l -8.40249,-3.51356 10.67536,-11.90078 c 10.0583,-11.21043 17.88483,-27.04722 14.8509,-30.08682 -0.75078,-0.75216 -2.01577,0.65943 -2.80768,3.13233 -3.65101,11.46802 -5.97531,15.22888 -9.40008,15.22888 -6.35585,0 -14.96402,-7.16109 -21.02161,-17.47509 -3.19849,-5.45066 -8.80358,-12.59113 -12.4546,-15.85741 l -6.63352,-5.95554 7.16832,9.52063 c 3.93898,5.23428 9.54405,13.47724 12.4443,18.29938 2.90025,4.82213 8.44362,10.16976 12.3106,11.89048 3.86702,1.71042 7.03463,3.9051 7.03463,4.87365 0,0.96855 -3.14706,5.26519 -6.99349,9.54123 -5.79019,6.42951 -7.74426,7.32594 -11.29242,5.17246 -6.76723,-4.10088 -14.74802,-17.35144 -16.16731,-26.83084 -0.69936,-4.76032 -2.60199,-12.94146 -4.21668,-18.18605 -2.40657,-7.85142 -4.11381,-9.65457 -9.71889,-10.30371 l -6.80836,-0.77277 1.41926,-15.88831 c 4.18584,-47.11885 4.32979,-58.813546 0.8639,-68.766934 -2.48883,-7.109556 -2.73568,-10.303704 -0.84332,-10.983744 1.46041,-0.525492 1.84094,-1.834056 0.83303,-2.915952 -0.99759,-1.071588 -2.95166,-0.813996 -4.35036,0.587316 -1.77923,1.78254 -1.41924,5.780376 1.23415,13.611192 4.77204,14.095464 4.75145,22.101444 -0.16454,57.937732 -4.22697,30.76686 -6.20159,34.01253 -14.29554,23.51305 -2.40657,-3.10141 -12.63971,-15.00219 -22.7597,-26.4496 -23.50017,-26.583562 -31.88211,-43.718626 -33.50708,-68.488738 -1.40895,-21.627468 -6.15012,-19.855236 40.4903,-15.115524 35.90334,3.647508 42.0535,6.357384 52.75971,23.276064 6.36614,10.05642 15.45769,17.897532 61.68672,53.146508 18.0391,13.75544 25.23829,23.33789 27.31578,36.41329 1.74836,10.94254 8.70073,20.57651 18.49573,25.65623 3.86389,1.99892 9.11212,7.06835 11.66369,11.26195 2.9383,4.82213 4.64246,6.14101 4.64861,3.59599 0.004,-2.20499 -3.31057,-7.02713 -7.36785,-10.70555 -21.62942,-19.63886 -23.18239,-21.56565 -24.77649,-30.68443 -2.54029,-14.46641 -9.9966,-23.82217 -33.19853,-41.62697 C 502.75744,95.21829 487.78314,83.678142 481.25244,78.598422 474.72175,73.51869 464.48862,63.05013 458.51331,55.332654 443.39501,35.80713 436.89519,33.251814 394.92394,30.335862 c -34.23725,-2.369856 -34.98803,-2.54502 -41.40557,-9.458796 -18.5636,-19.98919356 5.3171,-34.981085 30.38053,-19.0618599 6.01648,3.8226744 24.4978,12.4159599 41.07651,19.1030679 16.5684,6.687108 34.10355,14.538528 38.94756,17.45448 4.84404,2.915952 14.70692,8.778756 21.91639,13.023888 7.20945,4.24512 14.96401,10.571592 17.23691,14.043948 2.27288,3.482652 13.91499,13.559676 25.87591,22.410552 21.80324,16.125298 30.05556,25.851988 33.26021,39.154078 0.9462,3.93602 3.69939,9.9843 6.11933,13.45664 5.3634,7.69687 17.51973,34.24951 23.8149,52.02341 6.78266,19.14428 8.28523,49.89054 3.37435,69.04513 -2.93475,11.44569 -7.16387,20.55629 -12.89365,27.50405 -1.96918,2.38777 -4.11561,4.52008 -6.44766,6.40393 -8.80493,7.11267 -20.25596,10.68334 -34.80376,11.0883 l -8.80355,0.23699 z M 388.85039,156.30462 c 2.9841,-4.32041 10.19171,-22.61888 7.87823,-22.64582 -1.94971,-0.0227 -11.46556,21.97316 -13.05595,24.22663 -29.20601,41.38259 -0.22037,6.23455 5.17772,-1.58081 z m 96.97868,-30.1443 c 2.05692,-3.98754 3.63045,-10.25219 3.49677,-13.91 l -0.24685,-6.66651 -1.71752,7.14047 c -0.94616,3.92572 -3.0648,9.64427 -4.70002,12.70447 -1.64553,3.06021 -2.43744,6.09979 -1.77924,6.76954 0.6685,0.65943 2.88997,-2.05044 4.94686,-6.03797 z m -80.98052,-18.52607 c 2.50943,-13.199032 -1.52212,-27.675748 -12.01237,-43.18282 -4.66917,-6.913788 -8.98866,-12.075936 -9.59547,-11.468028 -0.59652,0.597624 1.55295,4.646976 4.79259,8.984832 10.04801,13.497864 12.11521,19.226724 13.55504,37.660044 1.32672,17.042322 1.48099,17.402962 3.26021,8.005972 z M 462.39058,299.922 c -1.93347,-3.76085 -2.85909,-7.5114 -2.03633,-8.32539 0.82277,-0.8243 12.13577,-1.49404 25.14572,-1.49404 21.13474,0 23.33564,0.39155 20.59997,3.69904 -4.52522,5.46096 -11.77583,8.93331 -22.47175,10.74676 -16.17762,2.7614 -17.58656,2.45228 -21.23761,-4.62637 z m -8.80355,-17.59873 c -3.37336,-6.31616 2.42716,-7.43927 26.04046,-5.0385 11.34387,1.154 30.46285,1.89588 42.4649,1.64858 24.19954,-0.50487 34.86565,-4.29664 39.25509,-13.95121 3.23245,-7.10955 5.21222,-7.26411 11.5187,-0.94794 3.39595,3.40023 4.38842,6.47073 3.27358,10.11823 -3.82277,12.4984 -6.03911,12.86933 -75.52151,12.57053 -40.25372,-0.17516 -45.01546,-0.61823 -47.03122,-4.39969 z m -39.8835,-39.42197 c 1.86152,-0.56671 5.23484,-2.65836 7.49744,-4.62637 3.22937,-2.8232 4.84402,-2.97776 7.53858,-0.75216 2.96195,2.47289 2.90026,3.76085 -0.47308,9.64427 l -3.89784,6.80043 -7.02436,-5.0076 c -4.92629,-3.51356 -6.01646,-5.32701 -3.64074,-6.05857 z M 5.8183725,203.08778 c 1.2649962,-6.73862 7.7442615,-22.06023 24.2303945,-57.2989 1.912929,-4.06997 6.17073,-8.63451 9.461779,-10.13885 5.54337,-2.53471 5.87247,-2.34924 4.381223,2.34924 -0.977031,3.10142 -0.699354,4.51303 0.730206,3.63721 1.285551,-0.80369 3.620165,-6.56346 5.183402,-12.7972 5.769642,-22.96696 20.157716,-36.382382 42.89686,-39.968066 5.882757,-0.927336 12.300323,-2.678964 14.254383,-3.894804 3.52759,-2.194692 -0.70964,-1.803144 -19.19097,1.78254 l -7.302041,1.421916 3.702451,-7.181688 c 6.314708,-12.240804 17.05176,-18.062388 35.21428,-19.092768 17.88483,-1.009752 22.21462,-5.131236 5.39939,-5.131236 -5.88276,0 -10.69594,-0.98916 -10.69594,-2.205 0,-5.749464 12.7117,-16.774428 20.93937,-18.155124 16.96949,-2.84382 23.8293,-6.141012 37.16833,-17.83572 9.67779,-8.479944 15.45768,-11.8080411 20.53825,-11.8080411 10.33598,0 21.94722,5.5743051 27.90198,13.3948131 2.86938,3.76086 9.93488,12.90024 15.71479,20.2983 l 10.49023,13.456644 -14.68632,9.098172 c -13.94585,8.644812 -15.95134,9.1806 -39.63668,10.478868 -26.58555,1.452816 -39.43094,5.636124 -47.03121,15.311304 -2.38603,3.049896 -8.01167,5.88342 -13.42134,6.759228 -19.3041,3.142632 -70.860533,40.225662 -74.151589,53.342272 -0.915339,3.65782 -3.126494,5.48158 -6.654102,5.48158 -8.597879,0 -29.413806,20.41164 -32.468321,31.85905 -4.226943,15.79559 -9.7497434,27.63455 -12.1871788,26.1302 -1.2444403,-0.76248 -1.5941099,-4.94577 -0.7816267,-9.29394 z M 188.5645,37.579362 c 11.55982,-1.030368 21.71067,-2.61714 22.57458,-3.52386 2.7974,-2.946864 -42.31064,0.257592 -45.26229,3.214752 -1.56326,1.55586 -1.82035,2.689272 -0.57595,2.5038 1.24444,-0.18546 11.71412,-1.17462 23.26366,-2.194692 z"/>
    <g  id="g35" transform="matrix(2.2,0,0,2.2,92.400004,66.000006)" class="legendBar" opacity="1">
        <rect id="legendRect" stroke="#000000" style="fill:url(#gradient);stroke-width:0.5;stroke-linecap:round;stroke-linejoin:round;stroke-miterlimit:10;stroke-opacity:1" height="15" width="120" y="185" x="100"/>
        <text style="font-size:7px;font-family:sans;text-anchor:middle" fill="#000000" id="leglableft" font-size="7" y="210" x="100" class="legendLabel">-1</text>
        <text style="font-size:7px;font-family:sans;text-anchor:middle" fill="#000000" id="leglabmid" font-size="7" y="210" x="160" class="legendLabel">0</text>
        <text style="font-size:7px;font-family:sans;text-anchor:middle" fill="#000000" id="leglabright" font-size="7" y="210" x="220" class="legendLabel">+1</text>
        <g id="g453" style="fill:#000000;fill-opacity:1">
            <use height="100%" width="100%" id="use455" y="216.97656" x="117.6875" xlink:href="#glyph0-0"/>
            <use height="100%" width="100%" id="use457" y="216.97656" x="120.4502" xlink:href="#glyph0-1"/>
        </g>
        <g id="g459" style="fill:#000000;fill-opacity:1">
            <use height="100%" width="100%" id="use461" y="216.97656" x="164.75" xlink:href="#glyph0-2"/>
        </g>
        <g id="g463" style="fill:#000000;fill-opacity:1">
            <use height="100%" width="100%" id="use465" y="216.97656" x="210.3125" xlink:href="#glyph0-1"/>
        </g>
    </g>
    <g id="diagramLabel" opacity="1" transform="matrix(2.2,0,0,2.2,93.00004,66)" >
        <text id="labelText" x="-20" y="240" fill="#000000" style="font-size:12px;font-family:sans;text-anchor:left"></text>
        <g style="fill:#000000;fill-opacity:1" id="g453">
            <use xlink:href="#glyph0-0" x="117.6875" y="216.97656" id="use455" width="100%" height="100%"/>
            <use xlink:href="#glyph0-1" x="120.4502" y="216.97656" id="use457" width="100%" height="100%"/>
        </g>
    </g>
    <g id="super_labels">

      <text
         x="584.72516"
         y="-12.096825"
         id="FL_label"
         class="FL_lab"
         opacity="0"
         style="font-size:25px;font-style:normal;font-weight:normal;line-height:125%;letter-spacing:0px;word-spacing:0px;fill:#000000;stroke:none;font-family:Sans">
         FL</text>
      <path
         d="M 584,-9 578,-17 422.42377,96.643286 z"
         id="FL_line"
         class="FL_lab"
         opacity="0"
         style="fill:#000000;fill-rule:evenodd;stroke:none" />

      <text
         x="-18.250366"
         y="137.91014"
         id="OL_label"
         class="OL_lab"
         opacity="0"
         style="font-size:25px;font-style:normal;font-weight:normal;line-height:125%;letter-spacing:0px;word-spacing:0px;fill:#000000;stroke:none;font-family:Sans">
         OL</text>
      <path
         d="m 20.797498,140.50203 -9.075458,4.19954 42.161399,79.20741 z"
         id="OL_line"
         class="OL_lab"
         opacity="0"
         style="fill:#000000;fill-rule:evenodd;stroke:none" />

      <text
         x="20.423429"
         y="0"
         id="PL_label"
         class="PL_lab"
         opacity="0"
         style="font-size:25px;font-style:normal;font-weight:normal;line-height:125%;letter-spacing:0px;word-spacing:0px;fill:#000000;stroke:none;font-family:Sans">
         PL</text>
      <path
         d="M 58.530228,-0.97988723 51.214148,5.8373688 176.48857,132.94388 z"
         id="PL_line"
         class="PL_lab"
         opacity="0"
         style="fill:#000000;fill-rule:evenodd;stroke:none" />

      <text
         x="522.5177"
         y="422.58041"
         id="TL_label"
         class="TL_lab"
         opacity="0"
         style="font-size:25px;font-style:normal;font-weight:normal;line-height:125%;letter-spacing:0px;word-spacing:0px;fill:#000000;stroke:none;font-family:Sans">
         TL</text>
      <path
         d="m 515.58833,407.85559 6.01616,-7.98786 -159.23074,-113.66744 z"
         id="TL_line"
         class="TL_lab"
         opacity="0"
         style="fill:#000000;fill-rule:evenodd;stroke:none" />

      <text
         x="346"
         y="461"
         id="BS_label"
         class="BS_lab"
         opacity="0"
         style="font-size:25px;font-style:normal;font-weight:normal;line-height:125%;letter-spacing:0px;word-spacing:0px;fill:#000000;stroke:none;font-family:Sans">
         BS</text>
      <path
         d="m 341.49075,456.48043 0.80946,-9.96718 -87.70032,-2.10583 z"
         id="BS_line"
         class="BS_lab"
         opacity="0"
         style="fill:#000000;fill-rule:evenodd;stroke:none" />

      <text
         x="45"
         y="480"
         id="CB_label"
         class="CB_lab"
         opacity="0"
         style="font-size:25px;font-style:normal;font-weight:normal;line-height:125%;letter-spacing:0px;word-spacing:0px;fill:#000000;stroke:none;font-family:Sans">
         CB</text>
      <path
         d="m 80,460 5,8 110,-87 z"
         id="CB_line"
         class="CB_lab"
         opacity="0"
         style="fill:#000000;fill-rule:evenodd;stroke:none" />
    </g>


    <g
       id="labels">
      <text
         x="447.71619"
         y="0"
         id="M1C_label"
         class="M1C_lab"
         opacity="0"
         style="font-size:25px;font-style:normal;font-weight:normal;line-height:125%;letter-spacing:0px;word-spacing:0px;fill:#000000;stroke:none;font-family:Sans">
         M1C</text>
      <path
         d="M 448.74772,5.120444 440.72568,-0.85005599 354.71736,123.08634 z"
         id="M1C_line"
         class="M1C_lab"
         opacity="0"
         style="fill:#000000;fill-rule:evenodd;stroke:none" />

      <text
         x="349"
         y="435"
         id="PON_label"
         class="PON_lab"
         opacity="0"
         style="font-size:25px;font-style:normal;font-weight:normal;line-height:125%;letter-spacing:0px;word-spacing:0px;fill:#000000;stroke:none;font-family:Sans">
         PON</text>
      <path
         d="m 345,425 3,-10 -60,-20 z"
         id="PON_line"
         class="PON_lab"
         opacity="0"
         style="fill:#000000;fill-rule:evenodd;stroke:none" />

      <text
         x="270"
         y="565"
         id="MED_label"
         class="MED_lab"
         opacity="0"
         style="font-size:25px;font-style:normal;font-weight:normal;line-height:125%;letter-spacing:0px;word-spacing:0px;fill:#000000;stroke:none;font-family:Sans">
         MED</text>
      <path
         d="m 266.54718,547.41914 7.96576,-6.0454 -48.33321,-55.41579 z"
         id="MED_line"
         class="MED_lab"
         opacity="0"
         style="fill:#000000;fill-rule:evenodd;stroke:none" />

      <text
         x="232"
         y="-16"
         id="S1C_label"
         class="S1C_lab"
         opacity="0"
         style="font-size:25px;font-style:normal;font-weight:normal;line-height:125%;letter-spacing:0px;word-spacing:0px;fill:#000000;stroke:none;font-family:Sans">
         S1C</text>
      <path
         d="m 278.70909,-16.017243 -9.41668,3.365438 44.25621,108.974365 z"
         id="S1C_line"
         class="S1C_lab"
         opacity="0"
         style="fill:#000000;fill-rule:evenodd;stroke:none" />

      <text
         x="560"
         y="98.443771"
         id="VFC_label"
         class="VFC_lab"
         opacity="0"
         style="font-size:25px;font-style:normal;font-weight:normal;line-height:125%;letter-spacing:0px;word-spacing:0px;fill:#000000;stroke:none;font-family:Sans">
         VFC</text>
      <path
         d="M 568.71391,102.61416 559.23177,99.437822 517.86128,238.6802 z"
         id="VFC_line"
         class="VFC_lab"
         opacity="0"
         style="fill:#000000;fill-rule:evenodd;stroke:none" />

      <text
         x="555"
         y="38"
         id="DFC_label"
         class="DFC_lab"
         opacity="0"
         style="font-size:25px;font-style:normal;font-weight:normal;line-height:125%;letter-spacing:0px;word-spacing:0px;fill:#000000;stroke:none;font-family:Sans">
         DFC</text>
      <path
         d="M 553.52079,40.310547 545.84665,33.899023 465.45747,137.9176 z"
         id="DFC_line"
         class="DFC_lab"
         opacity="0"
         style="fill:#000000;fill-rule:evenodd;stroke:none" />

      <text
         x="-6"
         y="34"
         id="STC_label"
         class="STC_lab"
         opacity="0"
         style="font-size:25px;font-style:normal;font-weight:normal;line-height:125%;letter-spacing:0px;word-spacing:0px;fill:#000000;stroke:none;font-family:Sans">
         STC</text>
      <path
         d="M 49.395014,28.885751 42.47585,36.105527 228.15723,207.13017 z"
         id="STC_line"
         class="STC_lab"
         opacity="0"
         style="fill:#000000;fill-rule:evenodd;stroke:none" />

      <text
         x="555"
         y="382"
         id="OFC_label"
         class="OFC_lab"
         opacity="0"
         style="font-size:25px;font-style:normal;font-weight:normal;line-height:125%;letter-spacing:0px;word-spacing:0px;fill:#000000;stroke:none;font-family:Sans">
         OFC</text>
      <path
         d="m 548.17374,368.35536 6.7943,-7.3374 -66.76929,-55.01269 z"
         id="OFC_line"
         class="OFC_lab"
         opacity="0"
         style="fill:#000000;fill-rule:evenodd;stroke:none" />

      <text
         x="480"
         y="453"
         id="ITC_label"
         class="ITC_lab"
         opacity="0"
         style="font-size:25px;font-style:normal;font-weight:normal;line-height:125%;letter-spacing:0px;word-spacing:0px;fill:#000000;stroke:none;font-family:Sans">
         ITC</text>
      <path
         d="m 471.85013,441.73265 5.0572,-8.62698 -117.22372,-62.92158 z"
         id="ITC_line"
         class="ITC_lab"
         opacity="0"
         style="fill:#000000;fill-rule:evenodd;stroke:none" />

      <text
         x="-2"
         y="335"
         id="V1C_label"
         class="V1C_lab"
         opacity="0"
         style="font-size:25px;font-style:normal;font-weight:normal;line-height:125%;letter-spacing:0px;word-spacing:0px;fill:#000000;stroke:none;font-family:Sans">
         V1C</text>
      <path
         d="m 0.771868,305.19551 8.7716906,4.80182 26.7959764,-59.36212 z"
         id="V1C_line"
         class="V1C_lab"
         opacity="0"
         style="fill:#000000;fill-rule:evenodd;stroke:none" />

      <text
         x="136"
         y="-5"
         id="IPC_label"
         class="IPC_lab"
         opacity="0"
         style="font-size:25px;font-style:normal;font-weight:normal;line-height:125%;letter-spacing:0px;word-spacing:0px;fill:#000000;stroke:none;font-family:Sans">
         IPC</text>
      <path
         d="m 180.03443,-5.6926073 -9.06332,4.225644 64.0174,125.4745533 z"
         id="IPC_line"
         class="IPC_lab"
         opacity="0"
         style="fill:#000000;fill-rule:evenodd;stroke:none" />

      <text
         x="40"
         y="-3"
         id="A1C_label"
         class="A1C_lab"
         opacity="0"
         style="font-size:25px;font-style:normal;font-weight:normal;line-height:125%;letter-spacing:0px;word-spacing:0px;fill:#000000;stroke:none;font-family:Sans">
         A1C</text>
      <path
         d="M 92.421639,-5.9978833 85.145109,0.86157009 269.68477,189.33264 z"
         id="A1C_line"
         class="A1C_lab"
         opacity="0"
         style="fill:#000000;fill-rule:evenodd;stroke:none" />

      <text
         x="0"
         y="92"
         id="ANG_label"
         class="ANG_lab"
         opacity="0"
         style="font-size:25px;font-style:normal;font-weight:normal;line-height:125%;letter-spacing:0px;word-spacing:0px;fill:#000000;stroke:none;font-family:Sans">
         ANG</text>
      <path
         d="M 61.94895,86.873807 55.20141,94.254233 157.9559,181.42264 z"
         id="ANG_line"
         class="ANG_lab"
         opacity="0"
         style="fill:#000000;fill-rule:evenodd;stroke:none" />
    </g>
</svg>
